<?xml version="1.0" encoding="UTF-8"?>
<!-- Generator: visioncortex VTracer 0.6.3 -->
<svg version="1.1" xmlns="http://www.w3.org/2000/svg" width="1280" height="1265">
<path d="M0 0 C422.4 0 844.8 0 1280 0 C1280 417.45 1280 834.9 1280 1265 C857.6 1265 435.2 1265 0 1265 C0 847.55 0 430.1 0 0 Z " fill="#FAFCFC" transform="translate(0,0)"/>
<path d="M0 0 C194.37 0 388.74 0 589 0 C589 0.33 589 0.66 589 1 C587.77 1.11 586.55 1.22 585.29 1.33 C552.44 4.32 520.78 9.32 489 18.18 C486.6 18.83 484.21 19.46 481.8 20.05 C456.91 26.27 432.45 34.55 408.56 43.88 C407.4 44.33 406.24 44.78 405.05 45.25 C399.41 47.49 394.2 49.89 389 53 C387.6 53.58 386.18 54.13 384.75 54.62 C378.78 56.93 373.24 59.98 367.61 63 C361.01 66.52 354.3 69.77 347.49 72.87 C343.06 74.91 338.95 77.2 334.84 79.84 C332.3 81.44 329.67 82.81 327 84.19 C303.41 96.77 281.17 112.74 260 129 C259.46 129.42 258.92 129.83 258.36 130.26 C246.6 139.31 235.33 148.89 224.36 158.86 C222.76 160.31 221.16 161.74 219.55 163.17 C214 168.09 208.74 173.23 203.54 178.5 C201.5 180.51 199.45 182.37 197.25 184.19 C194.16 186.75 191.66 189.62 189.07 192.68 C186.54 195.51 183.84 198.16 181.12 200.81 C176.47 205.39 172.27 210.17 168.21 215.29 C165.92 218.09 163.52 220.73 161.06 223.38 C156.15 228.73 151.73 234.39 147.37 240.19 C145.93 242.09 144.47 243.96 143.01 245.83 C134.14 257.2 125.98 269 118 281 C117.42 281.88 116.83 282.75 116.23 283.66 C100.43 307.48 86.57 332.33 74 358 C73.3 359.39 72.6 360.78 71.89 362.17 C70.55 364.85 69.32 367.51 68.25 370.31 C65.97 376.15 63.52 381.92 61.08 387.7 C60.41 389.28 59.75 390.86 59.08 392.44 C58.33 394.23 57.57 396.01 56.8 397.79 C53.59 405.36 50.79 413.03 48.12 420.81 C47.91 421.43 47.7 422.05 47.48 422.7 C44.16 432.35 41.05 442.06 38.16 451.85 C37.9 452.73 37.64 453.6 37.38 454.5 C37.16 455.25 36.94 456.01 36.71 456.78 C36 459 36 459 35.01 461.4 C33.89 464.29 33.16 467.15 32.45 470.17 C32.17 471.38 31.88 472.59 31.59 473.84 C31.29 475.14 30.99 476.45 30.69 477.75 C30.53 478.42 30.38 479.08 30.22 479.77 C27.43 491.83 24.85 503.93 22.55 516.1 C22.19 517.98 21.83 519.85 21.47 521.73 C14.69 556.45 13.39 590.66 13.61 625.95 C13.63 630.46 13.63 634.96 13.63 639.47 C13.63 643.9 13.64 648.32 13.65 652.75 C13.66 654.82 13.66 656.89 13.67 658.96 C13.7 679.02 15.28 698.84 18.19 718.69 C18.34 719.77 18.34 719.77 18.5 720.87 C22.09 745.53 26.76 770.11 33.24 794.18 C34.02 797.09 34.78 800.01 35.54 802.93 C44.24 835.72 56.29 869.14 71.69 899.38 C73.64 903.21 75.41 907.01 77 911 C82.65 922.67 88.79 934.17 95.42 945.31 C97.02 948.03 98.51 950.78 100 953.56 C105.18 963.12 111.34 972.08 117.39 981.1 C119.12 983.67 120.82 986.25 122.51 988.84 C127.26 996.09 132.22 1003.07 137.57 1009.89 C139.9 1012.87 142.14 1015.89 144.38 1018.94 C148.69 1024.72 153.34 1030.16 158.07 1035.6 C160.72 1038.66 163.28 1041.78 165.81 1044.94 C168.81 1048.64 171.92 1052.05 175.35 1055.35 C177.02 1057.02 178.54 1058.76 180.06 1060.56 C184.09 1065.24 188.49 1069.52 192.88 1073.85 C195.96 1076.92 198.95 1079.99 201.75 1083.31 C204.94 1087.07 208.51 1090.27 212.21 1093.52 C214.18 1095.28 216.12 1097.04 218.04 1098.85 C224.55 1105 231.26 1110.7 238.35 1116.16 C241.52 1118.61 244.62 1121.14 247.71 1123.69 C271.7 1143.45 297.53 1160.22 324.18 1176.11 C327.14 1177.88 330.1 1179.67 333.04 1181.48 C341.17 1186.47 349.47 1190.88 358.05 1195.04 C360.45 1196.22 362.82 1197.46 365.19 1198.69 C407 1220.2 451.63 1235.15 497 1247 C498 1247.27 499.01 1247.54 500.04 1247.81 C532.86 1256.45 567.21 1260.48 601 1263 C601 1263.66 601 1264.32 601 1265 C402.67 1265 204.34 1265 0 1265 C0 847.55 0 430.1 0 0 Z " fill="#FAFCFC" transform="translate(0,0)"/>
<path d="M0 0 C0.33 0 0.66 0 1 0 C1 196.35 1 392.7 1 595 C-193.04 595 -387.08 595 -587 595 C-584.17 592.17 -581.4 592.71 -577.6 592.63 C-564.72 592.13 -552.08 589.93 -539.38 587.88 C-538.11 587.67 -536.85 587.47 -535.56 587.26 C-509.79 583.14 -484.36 578.35 -459.37 570.72 C-457.01 570 -454.64 569.32 -452.26 568.64 C-438.67 564.74 -425.4 559.99 -412.12 555.14 C-409.48 554.17 -406.83 553.22 -404.18 552.27 C-391.53 547.69 -379.61 541.85 -367.62 535.77 C-364.17 534.03 -360.76 532.45 -357.12 531.12 C-351.4 528.96 -346.2 525.86 -340.89 522.85 C-336.15 520.18 -331.39 517.65 -326.5 515.25 C-321.8 512.93 -317.27 510.49 -312.81 507.73 C-310.21 506.13 -307.6 504.57 -304.97 503.02 C-296.56 498.03 -288.37 492.76 -280.25 487.31 C-279.6 486.88 -278.96 486.45 -278.29 486 C-263.62 476.19 -249.24 466.09 -235.9 454.5 C-233.18 452.16 -230.42 449.88 -227.62 447.62 C-221.24 442.42 -215.02 437.02 -208.83 431.59 C-207.66 430.57 -206.48 429.57 -205.29 428.57 C-198.49 422.8 -192.26 416.41 -185.96 410.09 C-183.94 408.07 -181.92 406.05 -179.89 404.03 C-173.71 397.85 -167.61 391.7 -162 385 C-160.96 383.8 -159.91 382.59 -158.86 381.39 C-140.14 359.85 -123.02 337.63 -107 314 C-106.3 312.98 -105.61 311.95 -104.89 310.9 C-96.75 298.82 -89.15 286.47 -82.09 273.73 C-80.26 270.45 -78.36 267.22 -76.44 264 C-73.42 258.87 -70.74 253.61 -68.12 248.27 C-66.39 244.75 -64.62 241.27 -62.74 237.83 C-58.39 229.9 -54.59 222 -51.47 213.5 C-50.03 209.59 -48.47 205.81 -46.7 202.04 C-43.19 194.44 -40.44 186.57 -37.62 178.69 C-37.34 177.89 -37.05 177.09 -36.76 176.26 C-29 154.59 -22.44 132.85 -16.88 110.52 C-16.14 107.57 -15.38 104.63 -14.59 101.69 C-10.18 84.75 -7.88 67.37 -5.31 50.08 C-4.88 47.22 -4.43 44.36 -3.99 41.5 C-2.38 30.87 -1.58 20.34 -1.29 9.59 C-1.26 8.62 -1.24 7.66 -1.21 6.67 C-1.19 5.82 -1.18 4.96 -1.16 4.08 C-1 2 -1 2 0 0 Z " fill="#FAFCFC" transform="translate(1279,670)"/>
<path d="M0 0 C187.44 0 374.88 0 568 0 C568 195.69 568 391.38 568 593 C565.25 590.25 565.59 588.42 565.32 584.56 C565.22 583.2 565.12 581.83 565.01 580.46 C564.93 579.38 564.93 579.38 564.85 578.27 C562.14 541.37 555.71 504.7 546 469 C545.73 467.99 545.46 466.99 545.19 465.95 C532.7 419.51 515.07 372.84 490.86 331.22 C489.22 328.38 487.63 325.51 486.06 322.62 C485.04 320.75 484.02 318.87 483 317 C482.38 315.86 481.76 314.71 481.12 313.54 C472.51 297.84 462.92 282.65 452.34 268.2 C450.76 266.04 449.2 263.87 447.66 261.67 C438.25 248.27 428.19 235.37 417.52 222.95 C415.1 220.12 412.76 217.22 410.44 214.31 C406.74 209.77 402.78 205.64 398.55 201.58 C396.63 199.63 394.87 197.69 393.1 195.61 C387.87 189.58 382.17 184.02 376.52 178.39 C374.57 176.44 372.62 174.49 370.67 172.53 C364.62 166.48 358.57 160.5 352 155 C350.85 154 349.69 153.01 348.54 152.01 C345.04 148.99 341.52 145.99 338 143 C337.12 142.25 336.23 141.49 335.32 140.72 C327.28 134 318.8 127.88 310.33 121.71 C308.2 120.15 306.08 118.58 303.97 117.01 C282.92 101.37 260.67 87.67 237.53 75.35 C235.21 74.11 232.89 72.86 230.57 71.6 C215.11 63.25 199.23 55.73 183 49 C181.52 48.38 181.52 48.38 180.01 47.74 C173.2 44.88 166.36 42.12 159.5 39.4 C157.51 38.6 155.51 37.8 153.53 36.98 C151.03 35.95 148.52 34.97 146 34 C144.77 33.52 143.54 33.04 142.28 32.55 C126.79 26.73 110.75 22.8 94.74 18.73 C90.37 17.61 86 16.47 81.65 15.27 C55.09 8.09 27.32 4.12 0 1 C0 0.67 0 0.34 0 0 Z " fill="#FAFCFC" transform="translate(712,0)"/>
<path d="M0 0 C1.3 -0.01 2.6 -0.01 3.94 -0.02 C9.42 -0.04 14.91 -0.06 20.39 -0.07 C27.42 -0.08 34.46 -0.11 41.49 -0.16 C100.21 -0.58 100.21 -0.58 127.45 4.64 C132.2 5.52 136.98 6.24 141.77 6.95 C160.68 9.88 179.18 14.83 197.66 19.7 C199.66 20.22 201.66 20.74 203.66 21.27 C215.5 24.38 227.15 27.93 238.73 31.9 C240.31 32.44 240.31 32.44 241.92 32.99 C247.88 35.08 253.6 37.46 259.32 40.12 C262.83 41.72 266.42 43.04 270.05 44.34 C274.78 46.07 279.39 47.86 283.84 50.23 C286.46 51.58 289.12 52.8 291.8 54.02 C292.92 54.54 294.04 55.05 295.19 55.59 C297.06 56.45 298.93 57.31 300.8 58.16 C325.95 69.72 350.93 82.75 373.86 98.27 C374.67 98.82 375.48 99.36 376.31 99.92 C387.83 107.63 399.14 115.54 410.14 123.96 C412.73 125.93 415.36 127.85 417.98 129.77 C423.71 134.06 429.1 138.69 434.5 143.38 C437.35 145.86 440.28 148.23 443.23 150.59 C455.9 160.93 467.35 172.67 478.92 184.21 C479.51 184.8 480.1 185.38 480.71 185.99 C486.44 191.7 492.13 197.4 497.39 203.56 C499.75 206.31 502.25 208.94 504.73 211.59 C510.03 217.29 515.02 223.17 519.86 229.27 C520.48 230.06 520.48 230.06 521.12 230.85 C532.09 244.63 542.61 258.67 552.48 273.26 C553.45 274.68 554.44 276.09 555.44 277.49 C560.44 284.49 564.92 291.78 569.36 299.15 C570.09 300.35 570.81 301.55 571.54 302.75 C581.33 318.93 590.55 335.29 598.86 352.27 C599.2 352.97 599.55 353.67 599.9 354.4 C609.37 373.76 618.23 393.56 625.08 414.01 C625.98 416.61 626.93 419.19 627.9 421.77 C644.51 466.35 654.48 512.98 660.11 560.15 C660.19 560.84 660.28 561.54 660.36 562.26 C661.35 570.6 662.11 578.92 662.51 587.32 C662.41 590.58 662.41 590.58 663.86 593.27 C663.96 595.64 664 597.98 663.99 600.34 C663.99 601.08 663.99 601.82 663.99 602.59 C664 605.05 664 607.51 663.99 609.97 C663.99 611.68 663.99 613.39 664 615.09 C664 618.68 663.99 622.27 663.99 625.86 C663.98 630.45 663.99 635.04 663.99 639.63 C664 643.16 664 646.7 663.99 650.23 C663.99 651.92 663.99 653.61 664 655.3 C664 657.68 663.99 660.05 663.99 662.43 C663.99 663.47 663.99 663.47 663.99 664.53 C663.98 668.86 663.52 672.99 662.86 677.27 C662.76 678.64 662.68 680.01 662.64 681.38 C662.61 682.11 662.59 682.83 662.56 683.58 C662.53 684.35 662.5 685.12 662.47 685.91 C661.99 696.42 660.6 706.74 659.05 717.15 C658.77 719.02 658.5 720.9 658.22 722.77 C655.08 744.02 650.76 764.85 645.71 785.73 C645.19 787.92 644.66 790.11 644.15 792.3 C638.44 816.54 629.71 840 620.92 863.27 C620.49 864.43 620.05 865.58 619.6 866.77 C616.93 873.73 613.99 880.51 610.86 887.27 C610.19 888.79 609.52 890.3 608.85 891.81 C603.36 904.19 597.6 916.52 590.86 928.27 C590 929.79 589.14 931.31 588.29 932.82 C585.17 938.32 582.02 943.8 578.86 949.27 C578.3 950.24 577.74 951.21 577.17 952.2 C565.95 971.6 565.95 971.6 559.6 979.94 C557.81 982.33 556.24 984.79 554.67 987.34 C547.5 998.79 539.31 1009.74 530.86 1020.27 C529.91 1021.46 529.91 1021.46 528.95 1022.68 C527.6 1024.37 526.24 1026.06 524.89 1027.74 C523.56 1029.4 522.24 1031.07 520.93 1032.74 C516.58 1038.27 511.99 1043.51 507.23 1048.69 C505.26 1050.84 503.33 1053.01 501.42 1055.21 C492.72 1065.19 483.6 1074.72 474.24 1084.07 C472.36 1085.96 470.48 1087.86 468.6 1089.76 C461.65 1096.73 454.59 1103.17 446.86 1109.27 C444.48 1111.27 442.14 1113.3 439.8 1115.34 C434.25 1120.11 428.62 1124.75 422.86 1129.27 C421.84 1130.09 420.82 1130.91 419.77 1131.75 C405.73 1142.95 391.16 1153.28 376 1162.9 C373.77 1164.33 371.55 1165.78 369.33 1167.23 C356.16 1175.84 356.16 1175.84 350.27 1178.98 C348.25 1180.06 346.25 1181.18 344.26 1182.32 C336.68 1186.64 329.07 1190.74 321.24 1194.58 C317.81 1196.3 314.46 1198.11 311.11 1199.96 C306.58 1202.43 302.07 1204.49 297.25 1206.32 C292.16 1208.35 287.32 1210.98 282.46 1213.53 C276.45 1216.63 270.33 1219.13 263.99 1221.48 C261.54 1222.39 259.11 1223.33 256.68 1224.27 C234.7 1232.72 212.43 1239.91 189.58 1245.58 C186.94 1246.25 184.31 1246.97 181.69 1247.7 C163.97 1252.55 145.89 1255.61 127.76 1258.44 C124.03 1259.03 120.31 1259.63 116.58 1260.23 C104.71 1262.12 93.02 1263.75 81 1264.11 C77.96 1264.06 77.96 1264.06 75.86 1265.27 C72.99 1265.37 70.15 1265.4 67.28 1265.39 C66.39 1265.39 65.5 1265.39 64.59 1265.39 C61.64 1265.39 58.7 1265.38 55.76 1265.37 C53.72 1265.37 51.68 1265.37 49.65 1265.37 C44.28 1265.36 38.91 1265.35 33.54 1265.34 C28.06 1265.33 22.59 1265.33 17.11 1265.32 C6.36 1265.31 -4.39 1265.29 -15.14 1265.27 C-15.14 1264.61 -15.14 1263.95 -15.14 1263.27 C-16.33 1263.31 -16.33 1263.31 -17.55 1263.35 C-27.77 1263.53 -37.59 1262.45 -47.7 1261.09 C-48.56 1260.97 -49.41 1260.86 -50.29 1260.74 C-91 1255.34 -130.03 1246.23 -169.16 1233.9 C-170.85 1233.36 -172.54 1232.84 -174.24 1232.31 C-193.02 1226.41 -211.07 1218.05 -229.14 1210.27 C-229.87 1209.96 -230.61 1209.64 -231.36 1209.32 C-239.21 1205.95 -246.99 1202.53 -254.52 1198.46 C-255.31 1198.04 -256.1 1197.62 -256.91 1197.18 C-259.32 1195.89 -261.73 1194.58 -264.14 1193.27 C-265.25 1192.67 -265.25 1192.67 -266.38 1192.06 C-304.27 1171.46 -340.07 1148.08 -373.4 1120.7 C-375.75 1118.78 -378.13 1116.9 -380.52 1115.02 C-384.76 1111.64 -388.79 1108.06 -392.79 1104.41 C-394.78 1102.6 -396.79 1100.84 -398.83 1099.09 C-416.18 1083.93 -416.18 1083.93 -423.21 1075.46 C-426.04 1072.25 -429.1 1069.28 -432.14 1066.27 C-436.42 1062.03 -440.61 1057.79 -444.51 1053.18 C-446.46 1050.9 -448.49 1048.68 -450.52 1046.46 C-455.25 1041.21 -459.71 1035.78 -464.14 1030.27 C-464.77 1029.5 -465.41 1028.72 -466.06 1027.92 C-478.64 1012.4 -490.56 996.21 -501.14 979.27 C-502.6 977 -504.05 974.73 -505.52 972.46 C-506.08 971.58 -506.08 971.58 -506.66 970.68 C-508.59 967.67 -510.53 964.67 -512.5 961.69 C-516.66 955.38 -520.4 949.03 -523.68 942.21 C-525.23 939.1 -526.93 936.14 -528.7 933.15 C-531.77 927.97 -534.51 922.69 -537.14 917.27 C-538.74 914.05 -540.36 910.84 -542.01 907.64 C-545.7 900.43 -549.11 893.28 -551.84 885.63 C-552.92 882.83 -554.11 880.18 -555.38 877.47 C-558.9 869.8 -561.74 861.88 -564.64 853.96 C-565.2 852.44 -565.76 850.93 -566.32 849.41 C-567.69 845.72 -569.04 842.03 -570.39 838.34 C-570.87 837 -571.36 835.67 -571.86 834.33 C-574.76 826.43 -577.36 818.52 -579.58 810.4 C-579.87 809.32 -580.17 808.25 -580.47 807.14 C-581.37 803.85 -582.26 800.56 -583.14 797.27 C-583.53 795.84 -583.53 795.84 -583.93 794.38 C-593.1 760.29 -598.73 725.37 -602.14 690.27 C-602.27 689.24 -602.27 689.24 -602.39 688.18 C-603.51 678.02 -603.37 667.79 -603.41 657.58 C-603.42 656.53 -603.42 655.48 -603.43 654.39 C-603.46 648.8 -603.48 643.2 -603.49 637.6 C-603.5 633.06 -603.53 628.53 -603.57 623.99 C-603.84 594.37 -602.62 565.58 -598.14 536.27 C-597.97 535.12 -597.97 535.12 -597.79 533.95 C-594.98 515.65 -591.22 497.66 -586.95 479.65 C-586.74 478.73 -586.52 477.82 -586.3 476.88 C-585.68 474.27 -585.05 471.66 -584.41 469.05 C-584.13 467.89 -584.13 467.89 -583.85 466.72 C-582.78 462.38 -581.46 458.25 -579.84 454.08 C-578.92 451.7 -578.14 449.27 -577.38 446.83 C-577.07 445.85 -576.76 444.86 -576.44 443.85 C-576.11 442.81 -575.79 441.78 -575.45 440.71 C-560.4 393.37 -560.4 393.37 -549.43 372.91 C-548.37 370.74 -547.52 368.66 -546.7 366.4 C-545.26 362.5 -543.53 358.79 -541.64 355.09 C-541.13 354.08 -541.13 354.08 -540.61 353.05 C-539.46 350.79 -538.3 348.53 -537.14 346.27 C-536.71 345.43 -536.28 344.6 -535.84 343.73 C-530.55 333.42 -525.11 323.28 -519.05 313.41 C-517.54 310.93 -516.13 308.45 -514.77 305.9 C-510.68 298.43 -505.81 291.39 -501.14 284.27 C-500.46 283.23 -499.77 282.18 -499.07 281.11 C-477.93 249.04 -453.76 218.53 -426.38 191.55 C-424.32 189.46 -422.41 187.32 -420.52 185.09 C-417.72 181.83 -414.71 179.09 -411.44 176.32 C-408.55 173.75 -405.85 171.02 -403.14 168.27 C-398.63 163.72 -394.03 159.41 -389.14 155.27 C-388.11 154.39 -387.09 153.5 -386.07 152.61 C-377.6 145.27 -368.94 138.2 -360.14 131.27 C-359.11 130.45 -358.07 129.63 -357.01 128.79 C-339.22 114.87 -320.3 102.22 -301.14 90.27 C-300.35 89.77 -299.55 89.27 -298.73 88.76 C-292.82 85.11 -286.69 82 -280.44 78.98 C-277.13 77.35 -277.13 77.35 -274.21 75.29 C-270.71 72.99 -267.14 71.3 -263.33 69.59 C-257.2 66.77 -251.2 63.78 -245.27 60.59 C-238.99 57.22 -232.68 54.1 -226.14 51.27 C-224.69 50.62 -223.24 49.97 -221.79 49.32 C-207.18 42.85 -192.24 37.47 -177.14 32.27 C-175.48 31.7 -175.48 31.7 -173.79 31.12 C-162 27.07 -150.24 23.3 -138.14 20.27 C-135.81 19.65 -133.47 19.03 -131.14 18.4 C-129.89 18.07 -128.64 17.74 -127.35 17.4 C-124.32 16.6 -121.3 15.75 -118.28 14.9 C-79.64 4.15 -39.98 0.15 0 0 Z M17.92 7.31 C-31.05 8.05 -80.86 14.39 -128.14 27.27 C-129.31 27.59 -130.47 27.9 -131.67 28.22 C-154.17 34.27 -176.35 41.06 -197.91 49.95 C-201.13 51.27 -204.38 52.49 -207.64 53.71 C-212.98 55.75 -218.16 58.08 -223.32 60.54 C-228.75 63.12 -234.24 65.53 -239.77 67.88 C-243.42 69.44 -246.75 71.23 -250.14 73.27 C-251.87 74.19 -253.61 75.1 -255.36 75.99 C-280.29 88.49 -280.29 88.49 -303.72 103.52 C-306.82 105.77 -310.01 107.86 -313.2 109.96 C-325.81 118.32 -338.14 127.07 -350.14 136.27 C-350.81 136.79 -351.48 137.3 -352.18 137.83 C-362.44 145.68 -372.45 153.73 -382.14 162.27 C-383.04 163.06 -383.95 163.85 -384.88 164.67 C-390.03 169.24 -394.92 174.03 -399.77 178.93 C-401.85 180.99 -403.98 182.93 -406.2 184.84 C-412.73 190.44 -418.62 196.59 -424.2 203.12 C-426.54 205.72 -429.02 208.14 -431.52 210.59 C-435.99 214.99 -440 219.63 -443.91 224.54 C-446.16 227.29 -448.52 229.87 -450.95 232.46 C-456.72 238.73 -461.72 245.52 -466.75 252.39 C-468.69 255.02 -470.67 257.61 -472.64 260.21 C-486.04 278.09 -498.33 296.59 -509.69 315.82 C-511.06 318.14 -512.45 320.45 -513.84 322.77 C-519.05 331.44 -523.78 340.24 -528.19 349.34 C-529.1 351.2 -530.04 353.04 -530.99 354.88 C-552.69 397.02 -568.04 442.29 -579.14 488.27 C-579.42 489.43 -579.7 490.59 -579.99 491.79 C-587.1 521.64 -591.3 551.75 -594.14 582.27 C-594.25 583.38 -594.36 584.49 -594.47 585.63 C-595.45 597.2 -595.29 608.8 -595.27 620.4 C-595.26 621.51 -595.26 622.62 -595.26 623.77 C-595.23 640.62 -595.11 657.45 -594.14 674.27 C-594.09 675.26 -594.03 676.24 -593.98 677.25 C-590 745.95 -572.78 815.31 -545.14 878.27 C-544.65 879.4 -544.17 880.52 -543.67 881.68 C-533.55 905 -522.49 927.81 -509.21 949.52 C-508.21 951.16 -507.23 952.8 -506.24 954.45 C-494.27 974.31 -480.98 993.38 -466.53 1011.51 C-465.14 1013.28 -463.76 1015.06 -462.39 1016.84 C-457.54 1023.13 -452.56 1029.15 -447.13 1034.94 C-444.11 1038.17 -441.28 1041.51 -438.52 1044.96 C-435.01 1049.32 -431.26 1053.26 -427.25 1057.17 C-425.32 1059.1 -423.53 1061.07 -421.77 1063.15 C-415.41 1070.54 -408.38 1077.34 -400.97 1083.66 C-399.11 1085.3 -397.37 1087.01 -395.64 1088.77 C-392.69 1091.77 -389.6 1094.54 -386.4 1097.29 C-383.8 1099.58 -381.29 1101.96 -378.77 1104.34 C-371.69 1110.92 -364.02 1116.73 -356.34 1122.59 C-354.11 1124.3 -351.9 1126.03 -349.69 1127.77 C-345.07 1131.37 -340.32 1134.75 -335.52 1138.09 C-334.21 1138.99 -334.21 1138.99 -332.89 1139.92 C-325.37 1145.14 -317.8 1150.26 -310.14 1155.27 C-308.82 1156.14 -308.82 1156.14 -307.48 1157.02 C-300.58 1161.47 -293.53 1165.66 -286.48 1169.86 C-282.03 1172.51 -277.64 1175.22 -273.33 1178.09 C-268.12 1181.45 -262.58 1183.99 -256.94 1186.53 C-253.41 1188.13 -249.96 1189.87 -246.52 1191.65 C-239.73 1195.08 -232.79 1198.06 -225.77 1200.99 C-221.47 1202.8 -217.25 1204.69 -213.09 1206.82 C-208.39 1209.21 -203.61 1211.08 -198.64 1212.84 C-196.97 1213.44 -195.29 1214.04 -193.62 1214.64 C-192.45 1215.07 -192.45 1215.07 -191.25 1215.5 C-188.79 1216.4 -186.37 1217.39 -183.95 1218.4 C-179.05 1220.41 -174.01 1221.93 -168.93 1223.44 C-165.77 1224.39 -162.81 1225.42 -159.78 1226.75 C-155.32 1228.62 -150.81 1229.85 -146.14 1231.09 C-144.69 1231.47 -144.69 1231.47 -143.21 1231.87 C-141.18 1232.41 -139.15 1232.94 -137.12 1233.48 C-134.35 1234.22 -131.58 1234.98 -128.82 1235.75 C-52.14 1256.83 30.13 1261.84 108.86 1251.27 C110.51 1251.05 110.51 1251.05 112.2 1250.83 C152.52 1245.36 191.77 1236.03 230.36 1223.21 C231.13 1222.96 231.9 1222.7 232.7 1222.44 C249.55 1216.83 266.16 1210.76 282 1202.67 C284.55 1201.42 287.09 1200.35 289.73 1199.34 C295.66 1197.04 301.27 1194.14 306.93 1191.25 C308.95 1190.23 310.97 1189.22 313 1188.22 C322.71 1183.41 332.14 1178.34 341.41 1172.73 C343.58 1171.44 345.77 1170.22 347.98 1169.02 C370.45 1156.64 391.59 1141.4 411.79 1125.66 C413.86 1124.05 415.95 1122.46 418.05 1120.89 C425.99 1114.97 433.19 1108.47 440.37 1101.67 C442.18 1099.97 444.04 1098.33 445.92 1096.71 C449.99 1093.2 453.92 1089.55 457.86 1085.9 C460.52 1083.43 463.18 1080.97 465.89 1078.56 C470.53 1074.42 474.86 1070.29 478.86 1065.52 C481.52 1062.53 484.38 1059.76 487.23 1056.96 C492.09 1052.18 496.52 1047.23 500.75 1041.88 C502.85 1039.29 505.04 1036.84 507.3 1034.4 C511.16 1030.16 514.68 1025.72 518.13 1021.15 C520.75 1017.7 523.45 1014.34 526.23 1011.02 C532.22 1003.77 537.51 996 542.86 988.27 C543.3 987.64 543.74 987.01 544.19 986.35 C546.12 983.57 548.05 980.79 549.96 978 C551.48 975.82 553.03 973.66 554.61 971.52 C556.86 968.28 558.73 964.98 560.55 961.48 C561.86 959.27 561.86 959.27 563.82 956.88 C565.98 954.12 567.41 951.42 568.92 948.27 C570.75 944.48 572.65 940.85 574.86 937.27 C579.98 928.8 584.52 920.15 588.88 911.27 C590.42 908.14 591.98 905.02 593.55 901.9 C594.4 900.19 594.4 900.19 595.27 898.45 C596.26 896.47 597.26 894.5 598.27 892.53 C600.25 888.64 602.12 884.76 603.72 880.7 C604.07 879.82 604.41 878.95 604.77 878.05 C605.13 877.13 605.49 876.22 605.86 875.27 C606.22 874.35 606.59 873.42 606.96 872.47 C608.1 869.57 609.23 866.67 610.36 863.77 C611.12 861.83 611.88 859.88 612.64 857.93 C613.01 856.98 613.38 856.03 613.77 855.04 C614.78 852.47 615.82 849.9 616.87 847.34 C624.28 828.85 629.83 809.53 634.86 790.27 C635.18 789.04 635.51 787.8 635.84 786.53 C644.26 754.19 649.54 721.51 652.86 688.27 C652.98 687.11 653.1 685.96 653.22 684.76 C661.62 599.45 647.93 510.75 621.17 429.84 C620.94 429.12 620.7 428.41 620.46 427.68 C618.18 420.78 615.88 413.94 612.8 407.34 C611.03 403.47 609.54 399.48 607.98 395.52 C604.86 387.64 601.51 379.93 597.86 372.27 C597.2 370.87 596.54 369.46 595.89 368.05 C589.01 353.34 581.95 338.72 573.41 324.88 C572.06 322.62 570.79 320.33 569.52 318.02 C566.97 313.42 564.24 308.96 561.42 304.52 C560.91 303.71 560.39 302.9 559.86 302.06 C547.69 282.98 535.11 264.17 520.76 246.64 C518.92 244.36 517.17 242.02 515.41 239.67 C509.83 232.24 503.65 225.51 497.26 218.76 C495.54 216.93 493.88 215.05 492.23 213.15 C483.99 203.61 475.29 194.54 466.36 185.64 C464.66 183.95 462.96 182.25 461.27 180.54 C455.63 174.91 449.94 169.44 443.86 164.27 C442.25 162.82 440.65 161.36 439.05 159.9 C433.8 155.17 428.38 150.69 422.86 146.27 C422.35 145.86 421.84 145.45 421.31 145.03 C406.95 133.52 392.11 122.59 376.86 112.27 C376.28 111.88 375.71 111.49 375.11 111.09 C359.78 100.7 344.16 91.07 327.86 82.27 C326.73 81.66 326.73 81.66 325.58 81.04 C254.16 42.45 174.7 18.1 93.86 10.27 C92.84 10.17 91.82 10.08 90.77 9.97 C66.54 7.69 42.24 7 17.92 7.31 Z " fill="#000100" transform="translate(616.140625,-0.2734375)"/>
<path d="M0 0 C2.89 2.27 5.22 4.64 7.62 7.41 C8.5 8.32 9.38 9.22 10.29 10.16 C16.07 16.75 17.76 21.88 17.19 30.62 C15.59 41.39 11.67 51.36 7.62 61.41 C7.11 62.73 6.59 64.04 6.08 65.35 C2.06 75.55 2.06 75.55 -0 79.66 C-1.26 82.18 -1.94 84.53 -2.65 87.23 C-4.01 91.32 -5.98 95.16 -7.84 99.04 C-9.21 102.05 -10.39 105.08 -11.53 108.18 C-12.49 110.71 -13.52 113.2 -14.57 115.69 C-15.15 117.08 -15.15 117.08 -15.74 118.5 C-16.54 120.4 -17.34 122.3 -18.15 124.19 C-20.52 129.9 -22.22 135.34 -23.38 141.41 C-23.01 140.93 -22.65 140.44 -22.28 139.93 C-18.7 135.12 -15 130.43 -11.19 125.79 C-7.37 121.12 -3.59 116.43 0.11 111.65 C3.84 106.82 7.59 102.18 12.03 97.96 C14.35 95.7 16.43 93.25 18.54 90.79 C26.1 82.16 33.99 73.86 42.1 65.75 C43.63 64.22 45.15 62.69 46.66 61.15 C52.29 55.5 58.03 50.26 64.3 45.32 C66.4 43.6 68.27 41.83 70.12 39.85 C73.71 36.12 77.83 33.26 82.07 30.31 C84.64 28.5 84.64 28.5 86.65 26.37 C88.8 24.24 90.95 22.86 93.56 21.35 C94.4 20.87 95.23 20.38 96.09 19.88 C96.93 19.4 97.76 18.91 98.62 18.41 C99.95 17.61 99.95 17.61 101.3 16.79 C103.7 15.37 106.01 14.39 108.62 13.41 C109.22 13.18 109.82 12.94 110.44 12.7 C119.63 9.1 128.81 6.18 138.38 10.1 C145.81 13.82 150.16 20 153.62 27.41 C154.65 31.05 155.4 34.64 155.62 38.41 C153.87 40.17 151.26 39.63 148.88 39.73 C133.45 40.79 117.5 47.52 105.62 57.41 C103.93 58.38 102.23 59.34 100.53 60.29 C97.5 62.08 94.66 64.1 91.81 66.16 C91.2 66.6 90.6 67.04 89.97 67.49 C84.71 71.3 79.64 75.3 74.62 79.41 C73.79 80.08 72.95 80.74 72.09 81.42 C58.36 92.39 46.05 104.89 33.62 117.29 C32.99 117.92 32.35 118.56 31.69 119.21 C22.65 128.21 22.65 128.21 14.12 137.68 C12.52 139.54 10.84 141.31 9.13 143.08 C8.57 143.67 8.01 144.25 7.44 144.85 C6.3 146.04 5.15 147.21 3.99 148.39 C1.67 150.82 -0.12 152.83 -1.46 155.93 C-1.13 165.53 9.01 175.71 15.11 182.57 C17.37 185.13 19.5 187.75 21.62 190.41 C40.03 209.91 63.6 227.4 87.62 239.41 C87.62 240.07 87.62 240.73 87.62 241.41 C88.64 241.56 88.64 241.56 89.67 241.71 C92.62 242.41 95.16 243.5 97.89 244.79 C110.74 250.86 125.25 255.46 139.62 253.41 C142.8 252.01 142.8 252.01 145.62 250.41 C146.62 250.08 147.61 249.75 148.62 249.41 C148.62 245.45 148.62 241.49 148.62 237.41 C150.27 237.08 151.92 236.75 153.62 236.41 C159.36 243.1 160.93 249.67 160.62 258.41 C159.63 262.25 158.28 265.81 156.62 269.41 C155.96 269.41 155.31 269.41 154.62 269.41 C154.46 270.09 154.3 270.78 154.12 271.48 C151.01 277.59 144.91 281.9 138.62 284.41 C115.92 290.04 91.07 278.59 71.85 267.25 C58.92 259.28 46.9 249.75 35.42 239.83 C33.08 237.8 30.7 235.83 28.31 233.85 C27.43 233.05 26.54 232.24 25.62 231.41 C25.62 230.75 25.62 230.09 25.62 229.41 C25.03 229.15 24.43 228.88 23.82 228.6 C21.61 227.4 20.27 226.25 18.56 224.43 C18 223.83 17.43 223.23 16.85 222.62 C16.26 221.97 15.67 221.33 15.06 220.66 C14.45 220 13.83 219.33 13.2 218.64 C2.46 206.89 -7.23 194.19 -15.11 180.35 C-16.23 178.27 -16.23 178.27 -18.38 177.41 C-18.64 178.14 -18.9 178.86 -19.16 179.61 C-20.41 182.5 -21.89 184.75 -23.75 187.29 C-26.57 191.23 -29.05 195.16 -31.38 199.41 C-32.01 200.4 -32.65 201.39 -33.31 202.41 C-39 212.54 -40.95 222.92 -41.23 234.34 C-41.38 237.41 -41.38 237.41 -42.38 238.41 C-50.59 239.62 -56.33 238.29 -63.09 233.49 C-68.05 228.99 -70.09 223.2 -70.58 216.62 C-71.41 189.8 -65.93 166.95 -56.88 141.79 C-56.48 140.7 -56.09 139.6 -55.69 138.48 C-53.74 133.04 -51.7 127.7 -49.38 122.41 C-48.57 120.36 -47.78 118.29 -47 116.23 C-43.9 108.13 -40.79 100.07 -36.81 92.35 C-35.11 89.03 -33.72 85.75 -32.5 82.23 C-30.22 75.7 -27.24 69.52 -24.26 63.28 C-20.73 55.86 -17.28 48.43 -14.32 40.76 C-13.35 38.34 -12.25 36.01 -11.12 33.66 C-9.51 30.11 -8.97 27.36 -9.38 23.41 C-12.18 22.3 -13.35 22.41 -16.29 23.34 C-17.33 23.8 -18.37 24.26 -19.44 24.73 C-21 25.4 -21 25.4 -22.6 26.09 C-25.49 27.39 -25.49 27.39 -28.38 29.41 C-29.37 29.41 -30.36 29.41 -31.38 29.41 C-31.38 30.07 -31.38 30.73 -31.38 31.41 C-31.86 31.65 -32.35 31.88 -32.85 32.12 C-40.19 35.9 -46.37 40.94 -52.75 46.11 C-54.12 47.21 -55.5 48.28 -56.9 49.34 C-72.85 61.59 -87.24 76.41 -99.38 92.41 C-100.14 93.42 -100.14 93.42 -100.92 94.44 C-118.25 118.72 -124.63 150.68 -120.69 179.98 C-118.06 193.03 -110.56 200.36 -100.1 207.84 C-99.53 208.36 -98.96 208.88 -98.38 209.41 C-98.38 210.4 -98.38 211.39 -98.38 212.41 C-107.07 218.68 -117.08 218.78 -127.38 217.41 C-131.48 216.29 -134.79 214.68 -138.38 212.41 C-139.17 211.94 -139.97 211.48 -140.79 210.99 C-150.8 204.77 -159.24 195.98 -162.38 184.41 C-163.53 177 -163.53 169.53 -163.5 162.04 C-163.5 160.99 -163.51 159.95 -163.51 158.87 C-163.47 126.82 -146.87 101.35 -125.82 78.03 C-124.84 76.94 -123.88 75.83 -122.93 74.72 C-117.57 68.43 -111.75 62.61 -105.92 56.77 C-104.14 54.99 -102.37 53.2 -100.6 51.41 C-93.83 44.61 -86.91 38.37 -79.38 32.41 C-78.31 31.52 -77.25 30.61 -76.2 29.7 C-64.3 19.44 -51.35 11.52 -37.38 4.41 C-35.9 3.64 -35.9 3.64 -34.39 2.84 C-24.49 -2.29 -10.5 -4.94 0 0 Z " fill="#000100" transform="translate(439.375,488.5859375)"/>
<path d="M0 0 C5.73 6.23 7.7 11.67 7.4 20.12 C7.12 22.31 7.12 22.31 6.12 23.31 C4.25 23.42 2.38 23.5 0.5 23.56 C-11.92 24.47 -22.06 28.89 -32.27 35.64 C-34.88 37.31 -34.88 37.31 -37.88 38.31 C-38.21 38.97 -38.53 39.63 -38.88 40.31 C-40.47 41.22 -42.08 42.12 -43.68 43.01 C-47.72 45.41 -51.44 48.26 -55.2 51.06 C-57.05 52.44 -58.9 53.81 -60.75 55.18 C-78.63 68.45 -94.67 83.05 -110.44 98.75 C-111.27 99.58 -112.1 100.41 -112.96 101.26 C-117.21 105.51 -121.29 109.84 -125.21 114.4 C-128.01 117.62 -130.95 120.71 -133.88 123.81 C-135.1 125.12 -136.32 126.44 -137.54 127.75 C-139.45 129.81 -141.38 131.82 -143.37 133.81 C-144.01 134.47 -144.65 135.13 -145.31 135.81 C-146.11 136.6 -146.11 136.6 -146.93 137.41 C-148.52 140.61 -147.72 142.91 -146.88 146.31 C-145.62 149.05 -144.08 151.54 -142.44 154.06 C-141.77 155.11 -141.77 155.11 -141.09 156.18 C-136.94 162.51 -132.13 167.86 -126.88 173.31 C-125.76 174.62 -124.66 175.93 -123.56 177.25 C-110.07 192.65 -92.94 204.26 -75.88 215.31 C-75.12 215.81 -74.36 216.32 -73.58 216.83 C-67.94 220.5 -61.93 223.4 -55.88 226.31 C-54.79 226.83 -53.71 227.35 -52.6 227.89 C-45.82 231.09 -39.02 234.01 -31.88 236.31 C-30.84 236.65 -30.84 236.65 -29.79 237 C-24.6 238.43 -19.42 238.52 -14.06 238.56 C-12.95 238.58 -12.95 238.58 -11.81 238.59 C-6.52 238.57 -6.52 238.57 -1.88 236.31 C0.41 232.89 0.32 231.69 0.19 227.69 C0.13 225.9 0.1 224.1 0.12 222.31 C1.12 221.31 1.12 221.31 3.38 220.88 C6.78 221.42 7.97 222.89 10.11 225.51 C13.21 231 12.56 238.23 12.12 244.31 C10.34 250.42 5.92 258.97 0.31 262.43 C-2.18 263.44 -4.04 263.58 -6.73 263.62 C-7.69 263.63 -8.65 263.65 -9.64 263.67 C-11.2 263.68 -11.2 263.68 -12.78 263.68 C-13.86 263.69 -14.93 263.7 -16.04 263.71 C-18.32 263.73 -20.6 263.73 -22.88 263.74 C-26.33 263.75 -29.79 263.8 -33.24 263.85 C-54.49 264.01 -54.49 264.01 -63.88 258.31 C-64.56 257.95 -65.24 257.59 -65.95 257.22 C-75.45 252.13 -84.25 245.73 -92.88 239.31 C-93.43 238.9 -93.98 238.5 -94.55 238.07 C-101.81 232.71 -108.6 227 -115.18 220.82 C-117.34 218.81 -119.54 216.89 -121.81 215 C-139.53 199.52 -155.37 178.57 -165.43 157.3 C-167.61 152.8 -170.09 148.48 -172.55 144.12 C-173.88 141.31 -173.88 141.31 -173.88 137.31 C-174.53 137.31 -175.2 137.31 -175.88 137.31 C-179.15 146.83 -182.25 156.38 -185 166.06 C-185.25 166.94 -185.5 167.83 -185.76 168.73 C-186.88 172.69 -187.97 176.64 -189 180.61 C-189.33 181.85 -189.66 183.1 -190 184.38 C-190.41 185.97 -190.41 185.97 -190.82 187.6 C-192.07 190.81 -193.06 192.31 -195.88 194.31 C-202.04 195.33 -209.72 195.78 -215.12 192.19 C-219.47 187.65 -221.04 184.31 -221.38 178.06 C-220.95 161.81 -213.51 145.21 -206.22 131.02 C-204.82 128.19 -203.66 125.37 -202.63 122.4 C-201.85 120.24 -201 118.12 -200.14 116 C-197.41 109.2 -194.84 102.35 -192.25 95.5 C-191.51 93.55 -190.78 91.6 -190.04 89.65 C-189.37 87.89 -188.71 86.14 -188.05 84.38 C-186.76 81 -185.44 77.63 -184.02 74.3 C-180.62 66.23 -178.08 57.85 -175.53 49.47 C-174.96 47.59 -174.37 45.72 -173.77 43.85 C-172.64 39.38 -172.18 34.96 -171.75 30.38 C-171.66 29.5 -171.58 28.63 -171.49 27.72 C-171.28 25.59 -171.08 23.45 -170.88 21.31 C-162.2 20.17 -154.28 19.37 -145.88 22.31 C-140.93 26.13 -137.69 31.27 -136.45 37.41 C-136 44.38 -138.97 50.14 -141.88 56.31 C-142.38 57.4 -142.88 58.49 -143.4 59.62 C-144.42 61.82 -145.44 64.01 -146.46 66.21 C-148.09 69.78 -149.53 73.41 -150.95 77.07 C-151.79 79.1 -152.72 81 -153.75 82.94 C-156.12 87.51 -157.76 92.34 -159.51 97.17 C-161.49 102.54 -163.9 107.55 -166.68 112.57 C-168.09 115.81 -168.51 118.81 -168.88 122.31 C-168.27 121.51 -167.66 120.71 -167.04 119.89 C-162.66 114.14 -158.23 108.46 -153.56 102.94 C-150.93 99.82 -148.38 96.73 -146.06 93.38 C-143.88 90.31 -141.56 87.94 -138.88 85.31 C-137.37 83.65 -135.87 81.99 -134.38 80.31 C-131.3 76.87 -128.14 73.58 -124.88 70.31 C-122.62 67.83 -120.38 65.32 -118.16 62.81 C-113.86 58.11 -109.26 53.79 -104.56 49.5 C-100.87 46.12 -97.24 42.72 -93.75 39.12 C-89.96 35.27 -85.82 31.92 -81.6 28.54 C-79.11 26.5 -76.7 24.41 -74.31 22.25 C-65.7 14.56 -56.8 8.19 -46.88 2.31 C-46.25 1.9 -45.63 1.49 -44.98 1.06 C-31.1 -7.91 -14.04 -8.24 0 0 Z " fill="#000100" transform="translate(977.875,510.6875)"/>
<path d="M0 0 C5.81 3.5 8.95 8.63 10.99 15.01 C12.76 23.06 8.93 30.66 5.99 38.01 C5.74 38.63 5.5 39.26 5.24 39.9 C4 43.05 2.74 46.2 1.46 49.34 C0.06 52.84 -1.3 56.36 -2.64 59.89 C-4.33 64.33 -6.13 68.69 -8.12 73.01 C-9.15 75.32 -10.08 77.66 -11.01 80.01 C-11.8 81.91 -12.59 83.8 -13.39 85.7 C-16.26 92.59 -19.11 99.48 -21.64 106.51 C-27.12 121.69 -27.12 121.69 -30.9 128.76 C-32.15 131.29 -33.04 133.84 -33.95 136.51 C-35.94 142.19 -38.77 146.97 -42.01 152.01 C-42.57 152.93 -43.13 153.85 -43.71 154.8 C-51.6 167.64 -61.96 178.97 -77.01 183.01 C-88.33 184.97 -100.79 185.94 -111.01 180.01 C-111.87 179.53 -112.74 179.04 -113.62 178.54 C-119.9 174.61 -124.26 169.97 -127.01 163.01 C-127.16 160.21 -127.16 160.21 -127.01 158.01 C-125.69 157.68 -124.37 157.35 -123.01 157.01 C-122.6 157.62 -122.19 158.22 -121.76 158.84 C-117.23 165.11 -113.43 168.98 -105.7 170.45 C-97.28 171.09 -90.26 167.22 -83.68 162.25 C-78.03 157.09 -75.18 150.87 -72.01 144.01 C-71.32 142.75 -70.62 141.5 -69.89 140.26 C-65.91 133.36 -62.76 126.2 -59.67 118.87 C-58.38 115.81 -56.99 112.82 -55.59 109.81 C-52.93 104 -50.81 98.06 -48.76 92.01 C-48.41 90.99 -48.06 89.97 -47.7 88.91 C-46.46 85.28 -45.22 81.65 -44.01 78.01 C-45 78.51 -45 78.51 -46.01 79.01 C-46.01 80 -46.01 80.99 -46.01 82.01 C-47.66 83.7 -49.33 85.37 -51.01 87.01 C-52.31 89.18 -52.31 89.18 -53.01 91.01 C-53.67 91.01 -54.33 91.01 -55.01 91.01 C-55.33 92.04 -55.33 92.04 -55.66 93.09 C-57.42 96.89 -59.83 99.69 -62.57 102.82 C-63.38 103.75 -63.38 103.75 -64.2 104.69 C-77.72 120.04 -77.72 120.04 -87.64 121.57 C-94.09 121.36 -101.5 117.52 -106.01 113.01 C-109.62 103.38 -107.91 93.88 -106.01 84.01 C-104.53 83.52 -104.53 83.52 -103.01 83.01 C-102.89 81.34 -102.89 81.34 -102.76 79.64 C-102.1 74.37 -100.12 69.85 -98.01 65.01 C-94.79 57.47 -91.83 49.89 -89.12 42.14 C-88.44 40.21 -87.72 38.3 -86.93 36.41 C-85.24 32 -84.89 27.86 -84.87 23.16 C-84.85 22.06 -84.83 20.96 -84.81 19.83 C-84.78 17.53 -84.76 15.22 -84.76 12.92 C-84.72 11.27 -84.72 11.27 -84.68 9.6 C-84.67 8.6 -84.66 7.6 -84.66 6.57 C-84.01 4.01 -84.01 4.01 -81.67 2.19 C-74.87 -0.82 -64.88 0.03 -57.98 2.7 C-53.85 5.46 -51.43 9.77 -49.01 14.01 C-48.62 14.69 -48.22 15.38 -47.81 16.08 C-44.95 22.98 -49.56 33.48 -52.01 40.01 C-53.01 41.68 -54.01 43.35 -55.01 45.01 C-56.01 47.4 -56.97 49.78 -57.89 52.2 C-59.6 56.61 -61.37 60.88 -63.57 65.07 C-67.92 73.49 -71.44 82.5 -72.01 92.01 C-50.71 81.04 -35.32 45.32 -27.88 23.72 C-26.71 18.72 -26.95 14.08 -27.18 8.98 C-27.32 3.47 -27.32 3.47 -25.7 1.06 C-19.19 -2.99 -7.15 -2.35 0 0 Z " fill="#000100" transform="translate(758.01171875,580.98828125)"/>
<path d="M0 0 C4.89 3.99 6.97 8.33 7.93 14.56 C8.63 24.36 6.04 31.61 1.38 40.09 C0.03 42.57 -1.22 45.09 -2.47 47.62 C-3.32 49.33 -4.18 51.02 -5.05 52.72 C-6.7 56.08 -8.17 59.49 -9.62 62.94 C-10.01 63.83 -10.4 64.73 -10.8 65.65 C-13.35 71.61 -15.65 77.64 -17.81 83.75 C-18.06 84.45 -18.31 85.16 -18.57 85.89 C-20.79 92.24 -22.67 98.52 -23.69 105.19 C-24.16 108.26 -24.64 110.98 -25.62 113.94 C-30.16 116.98 -35.39 116.51 -40.62 115.94 C-45.93 114.45 -49.73 111.64 -52.73 107.02 C-54.4 103.15 -54.53 99.1 -54.62 94.94 C-55.28 94.94 -55.95 94.94 -56.62 94.94 C-56.86 95.49 -57.09 96.05 -57.33 96.62 C-61.63 104.29 -69.79 111.15 -78 114.19 C-86.74 115.99 -92.16 114.81 -99.62 109.94 C-104.15 106.19 -105.68 101.59 -106.62 95.94 C-106.9 92.35 -106.91 88.78 -106.88 85.19 C-106.87 84.21 -106.86 83.24 -106.85 82.23 C-106.49 56.76 -96.15 33.94 -78.47 15.7 C-69.78 7.27 -59.96 1.17 -47.81 -0.62 C-42.02 0.4 -38.21 1.82 -34.6 6.65 C-33.35 8.63 -32.14 10.64 -30.97 12.67 C-30.53 13.42 -30.08 14.17 -29.62 14.94 C-29.29 14.94 -28.97 14.94 -28.62 14.94 C-28.29 9.99 -27.97 5.04 -27.62 -0.06 C-18.49 -4.94 -9.4 -3.8 0 0 Z " fill="#000100" transform="translate(596.625,576.0625)"/>
<path d="M0 0 C1.03 -0.02 1.03 -0.02 2.08 -0.05 C8.01 -0.05 12.81 1.25 17.4 5.23 C22.07 11.38 23.58 17.21 23 24.9 C21.92 32.56 17.97 39.32 14.38 46.06 C12.64 49.36 11.06 52.73 9.5 56.12 C8.94 57.32 8.39 58.52 7.81 59.75 C5.16 65.56 2.66 71.42 0.19 77.31 C-0.18 78.16 -0.55 79.01 -0.93 79.88 C-4.51 88.33 -6.93 97.26 -8.55 106.28 C-8.78 107.53 -9.01 108.78 -9.25 110.06 C-9.43 111.19 -9.62 112.32 -9.81 113.48 C-10.81 116.31 -10.81 116.31 -13.18 118.18 C-19.77 121.02 -25.28 119.08 -31.61 116.58 C-35.4 114.4 -37.01 111.34 -38.44 107.31 C-38.68 106.65 -38.92 105.99 -39.16 105.31 C-39.81 103.33 -40.33 101.34 -40.81 99.31 C-41.43 99.95 -42.05 100.59 -42.69 101.25 C-46.91 105.45 -51.28 109.45 -55.81 113.31 C-56.37 113.8 -56.92 114.28 -57.49 114.78 C-63.25 118.95 -71.12 118.35 -77.81 117.31 C-83.08 114.99 -86.67 112.01 -89.88 107.25 C-96.02 87.98 -91.54 63.96 -82.94 46.12 C-82.24 44.85 -81.53 43.58 -80.81 42.31 C-80.08 40.95 -80.08 40.95 -79.32 39.55 C-70.65 23.97 -58.87 10.71 -41.81 4.31 C-35.96 2.89 -29.28 2.37 -23.81 5.31 C-18.65 10.21 -15.8 16.98 -12.81 23.31 C-12.48 16.38 -12.15 9.45 -11.81 2.31 C-7.58 0.2 -4.58 -0.02 0 0 Z " fill="#000100" transform="translate(957.8125,579.6875)"/>
<path d="M0 0 C7.68 1.81 11.91 6.35 16.15 12.73 C17.39 16.04 17.21 19.28 17.12 22.75 C17.12 23.45 17.11 24.14 17.1 24.86 C17.07 26.58 17.04 28.29 17 30 C22.98 32.04 28.58 32.43 34.88 32.62 C35.95 32.66 37.03 32.7 38.14 32.74 C77.17 34.06 77.17 34.06 116 31 C119.15 34.94 119.71 38.53 119.53 43.43 C118.55 48.15 115.86 51.24 112 54 C104.59 57.97 97.86 58.6 89.56 58.44 C88.38 58.43 87.2 58.41 85.98 58.4 C76.92 58.22 68.02 57.39 59.03 56.29 C49.26 55.1 39.48 54.16 29.67 53.35 C27.9 53.2 26.12 53.05 24.35 52.88 C21.86 52.66 19.37 52.46 16.88 52.26 C16.12 52.19 15.37 52.11 14.6 52.04 C10.62 51.7 10.62 51.7 7.09 53.3 C5.38 55.96 4.36 58.84 3.31 61.81 C3.06 62.5 2.81 63.2 2.55 63.91 C2 65.44 1.45 66.97 0.9 68.5 C-0.06 71.15 -1.02 73.81 -1.99 76.46 C-4.95 84.54 -7.88 92.64 -10.75 100.75 C-12.4 105.39 -14.17 109.94 -16.03 114.5 C-17.5 118.29 -18.74 122.16 -19.97 126.04 C-20.72 128.2 -21.57 130.33 -22.47 132.43 C-27.87 145.03 -31.51 158.53 -34.22 171.95 C-34.54 173.51 -34.54 173.51 -34.86 175.1 C-35.28 177.17 -35.69 179.24 -36.07 181.32 C-36.27 182.27 -36.46 183.22 -36.66 184.2 C-36.82 185.06 -36.98 185.91 -37.15 186.79 C-38.23 189.59 -39.42 190.51 -42 192 C-48.83 193.01 -56.05 193.45 -61.81 189.19 C-66.23 185.24 -67.79 181.66 -68.13 175.8 C-68.35 166.58 -66.41 158.51 -63 150 C-60.67 143.7 -58.41 137.39 -56.36 130.99 C-54.78 126.15 -53.01 121.43 -51.1 116.72 C-47.55 107.94 -44.28 99.06 -41.12 90.14 C-40.05 87.14 -38.94 84.16 -37.81 81.18 C-36.69 78.17 -35.63 75.15 -34.56 72.12 C-32.76 67.04 -30.84 62.04 -28.7 57.09 C-27.79 54.73 -27.79 54.73 -28 51 C-36.44 49.83 -44.7 50.01 -53.2 50.3 C-54.81 50.33 -54.81 50.33 -56.46 50.36 C-57.91 50.4 -57.91 50.4 -59.39 50.44 C-62.72 49.88 -63.88 48.54 -66 46 C-65.43 44.39 -64.85 42.79 -64.25 41.19 C-63.93 40.29 -63.6 39.4 -63.27 38.48 C-61.79 35.58 -60.84 34.58 -58 33 C-55.31 32.16 -52.74 31.47 -50 30.88 C-48.84 30.62 -48.84 30.62 -47.65 30.35 C-38.51 28.48 -29.3 28.19 -20 28 C-19.93 26.89 -19.93 26.89 -19.86 25.75 C-19.65 22.4 -19.42 19.04 -19.19 15.69 C-19.12 14.52 -19.05 13.35 -18.97 12.15 C-18.89 11.03 -18.81 9.91 -18.73 8.76 C-18.63 7.21 -18.63 7.21 -18.52 5.64 C-16.81 -2.96 -6.77 -0.61 0 0 Z " fill="#000100" transform="translate(668,501)"/>
<path d="M0 0 C1.22 0.17 2.45 0.33 3.71 0.5 C34 4.74 64.12 10.85 93 21 C94.64 21.56 96.28 22.11 97.91 22.66 C104.72 24.97 111.4 27.45 117.9 30.54 C120.39 31.71 122.89 32.83 125.41 33.93 C136.96 38.96 147.97 44.63 158.93 50.83 C161.43 52.24 163.96 53.59 166.5 54.94 C180.64 62.67 194.18 71.19 207.19 80.69 C208.79 81.85 210.4 82.98 212.01 84.11 C217.93 88.28 223.42 92.83 228.88 97.58 C232.18 100.46 235.52 103.21 239 105.88 C244.09 109.88 248.58 114.44 253.09 119.08 C256.25 122.31 259.45 125.2 263 128 C264.06 129.14 265.08 130.3 266.06 131.5 C269.18 135.16 272.51 138.52 275.94 141.88 C280.22 146.11 284.15 150.43 287.83 155.21 C289.49 157.35 291.18 159.43 292.92 161.51 C301.31 171.57 308.78 182.08 316 193 C316.48 193.72 316.96 194.45 317.46 195.19 C324.31 205.48 330.62 216.02 336.72 226.75 C337.96 228.92 339.21 231.08 340.47 233.24 C341.21 234.52 341.95 235.79 342.69 237.06 C343.33 238.17 343.97 239.27 344.64 240.41 C346 243 346 243 346 245 C346.66 245.33 347.32 245.66 348 246 C341.65 246.37 341.65 246.37 338.94 244.83 C336.57 242.59 335.54 240.47 334.19 237.5 C331.77 232.47 329.1 227.83 326.04 223.17 C323.99 219.99 322.04 216.77 320.09 213.53 C314.78 204.7 309.14 196.27 303 188 C302.03 186.68 301.06 185.36 300.09 184.04 C294.19 176.03 288.04 168.33 281.53 160.82 C280.37 159.44 279.24 158.04 278.12 156.63 C272.4 149.43 266.19 142.91 259.65 136.45 C257.93 134.74 256.22 133.03 254.51 131.32 C249.35 126.18 244.17 121.13 238.63 116.4 C236.37 114.46 234.23 112.41 232.06 110.38 C224.77 103.74 216.9 97.89 209 92 C208.2 91.4 207.4 90.8 206.57 90.18 C184.89 73.98 162.61 60.2 137.96 48.91 C135.37 47.71 132.84 46.39 130.31 45.06 C95.14 27.48 55.79 15.81 17 10 C16.31 9.89 15.61 9.79 14.9 9.68 C-3.95 6.82 -22.96 5.51 -42 5 C-42.84 4.98 -43.69 4.95 -44.56 4.93 C-62.74 4.5 -80.91 5.7 -99.05 6.87 C-100.74 6.98 -102.43 7.09 -104.12 7.19 C-146.43 9.99 -193.91 22.27 -231.63 41.83 C-233.93 42.96 -236.23 43.9 -238.62 44.81 C-249.28 48.97 -259.4 54.5 -269.21 60.35 C-271.94 61.97 -274.71 63.49 -277.5 65 C-286.4 69.83 -294.99 74.79 -303.11 80.86 C-305.66 82.75 -308.24 84.59 -310.84 86.41 C-324.62 96.12 -337.76 106.42 -350 118 C-351.77 119.58 -353.54 121.17 -355.31 122.75 C-361.06 128.02 -366.62 133.48 -372.15 138.98 C-373.16 139.98 -374.17 140.97 -375.18 141.97 C-381.92 148.63 -388.1 155.58 -394 163 C-394.88 164.05 -395.76 165.1 -396.64 166.14 C-409.41 181.15 -420.82 197.13 -431 214 C-431.54 214.88 -432.08 215.76 -432.63 216.66 C-435.74 221.78 -438.64 226.98 -441.48 232.24 C-447.91 243.91 -447.91 243.91 -450 246 C-452 246.04 -454 246.04 -456 246 C-456.33 245.34 -456.66 244.68 -457 244 C-456.34 244 -455.68 244 -455 244 C-454.92 243.33 -454.84 242.66 -454.76 241.98 C-453.75 238.02 -451.87 234.88 -449.81 231.38 C-448.98 229.93 -448.15 228.49 -447.32 227.05 C-446.92 226.35 -446.52 225.66 -446.1 224.94 C-444.72 222.51 -443.42 220.04 -442.12 217.56 C-435.48 205.33 -427.4 193.83 -419.18 182.61 C-418.04 181.06 -416.92 179.51 -415.8 177.96 C-411.31 171.85 -406.58 166.04 -401.6 160.33 C-399.39 157.8 -397.2 155.26 -395.12 152.62 C-389.15 145.1 -382.61 138.34 -375.8 131.59 C-373.93 129.74 -372.07 127.89 -370.22 126.03 C-364.31 120.14 -358.38 114.38 -352 109 C-350.76 107.92 -349.52 106.84 -348.29 105.75 C-328.95 88.88 -308.34 73.71 -286 61 C-284.54 60.11 -283.08 59.21 -281.62 58.31 C-269.76 51.18 -257.28 45.05 -244.87 38.93 C-243.55 38.27 -242.24 37.62 -240.93 36.95 C-240.25 36.6 -239.56 36.25 -238.85 35.89 C-238.23 35.58 -237.61 35.26 -236.98 34.94 C-234.69 33.85 -232.36 32.92 -230 32 C-225.16 30.08 -220.32 28.15 -215.53 26.11 C-202.31 20.54 -188.89 16.53 -175 13 C-173.86 12.71 -172.72 12.41 -171.54 12.11 C-115.59 -2.04 -57.41 -7.93 0 0 Z " fill="#000100" transform="translate(693,237)"/>
<path d="M0 0 C1.98 0 3.96 0 6 0 C9.19 6.16 12.19 12.37 14.98 18.73 C22.95 36.83 31.73 54.7 43 71 C43.77 72.12 44.54 73.25 45.3 74.38 C47.51 77.6 49.76 80.8 52 84 C52.57 84.84 53.14 85.68 53.73 86.54 C60.57 96.52 68.15 105.93 76 115.12 C76.44 115.64 76.87 116.15 77.32 116.68 C85.67 126.36 94.44 135.63 103.48 144.66 C105 146.19 106.52 147.73 108.04 149.26 C113.65 154.91 119.38 160.14 125.62 165.09 C127.84 166.87 129.93 168.74 132 170.69 C138.82 176.83 146.43 182.05 153.86 187.43 C155.55 188.67 157.23 189.94 158.9 191.22 C167.5 197.79 176.98 203.01 186.32 208.43 C188.96 209.98 191.57 211.56 194.18 213.15 C198.36 215.66 202.61 217.88 207 220 C208.16 220.59 209.32 221.18 210.51 221.79 C231.78 232.79 231.78 232.79 254.17 241.09 C256.74 241.92 259.18 242.87 261.68 243.89 C290.42 255.51 321.37 261.26 352 265 C352.67 265.08 353.35 265.17 354.04 265.25 C409.34 272.07 465.43 267.09 519 252 C519.92 251.75 520.83 251.49 521.78 251.23 C534 247.82 545.82 243.61 557.62 238.94 C559.77 238.09 561.93 237.26 564.09 236.44 C576.76 231.54 588.68 225.31 600.62 218.87 C604.54 216.76 608.5 214.76 612.5 212.81 C617.05 210.56 620.93 208.03 625 205 C626.67 204.04 628.34 203.08 630.02 202.13 C639.61 196.65 648.33 190.12 657.1 183.44 C659.75 181.43 662.44 179.47 665.12 177.5 C686.04 161.76 706.14 143.03 723 123 C723.92 121.94 724.84 120.88 725.77 119.83 C732.19 112.45 738.23 104.91 744 97 C744.89 95.8 745.79 94.61 746.68 93.41 C754.64 82.75 761.88 71.76 768.61 60.28 C769.67 58.55 770.79 56.85 771.93 55.18 C774.15 51.78 775.98 48.27 777.75 44.62 C778.45 43.21 779.15 41.8 779.84 40.38 C780.2 39.66 780.55 38.94 780.92 38.2 C782.68 34.62 784.47 31.06 786.25 27.5 C787.19 25.63 788.12 23.75 789.06 21.88 C789.71 20.57 790.38 19.27 791.04 17.96 C793.04 14.04 794.79 10.16 796.25 6 C796.59 5.05 796.92 4.1 797.27 3.12 C797.51 2.42 797.75 1.72 798 1 C800.97 0.5 800.97 0.5 804 0 C805.37 3.7 804.63 5.64 803.06 9.19 C802.59 10.25 802.12 11.32 801.64 12.41 C800.83 14.19 800.83 14.19 800 16 C799.57 16.95 799.57 16.95 799.13 17.91 C792.29 33.02 784.82 47.94 776 62 C775.27 63.2 774.53 64.39 773.8 65.59 C749.58 105 718.58 145.81 681.19 173.6 C677.83 176.13 674.67 178.81 671.5 181.56 C661.96 189.75 651.57 196.73 641.06 203.6 C638.4 205.35 635.85 207.12 633.37 209.12 C631.05 210.96 628.8 212.32 626.19 213.69 C621.46 216.21 616.79 218.8 612.12 221.44 C609.42 222.96 606.71 224.48 604 226 C603.4 226.34 602.8 226.67 602.18 227.02 C596.14 230.39 590.17 233.47 583.7 235.91 C580.36 237.26 577.13 238.82 573.88 240.38 C566.08 244.07 558.13 247.13 550 250 C549.25 250.27 548.5 250.54 547.73 250.81 C524.69 259 501.4 264.88 477.31 268.88 C476.44 269.02 475.57 269.17 474.67 269.32 C468.79 270.28 462.9 271.17 457 272 C456.28 272.11 455.56 272.21 454.82 272.32 C437.88 274.75 420.71 274.44 403.62 274.44 C402.84 274.44 402.05 274.44 401.23 274.44 C378.36 274.46 355.99 273.89 333.45 269.63 C330.26 269.05 327.07 268.58 323.85 268.16 C297.42 264.64 270.52 256.36 246 246 C245.08 245.62 244.15 245.24 243.2 244.85 C226.06 237.78 209.17 230.08 193 221 C192.08 220.49 191.16 219.97 190.22 219.44 C177.64 212.35 165.51 204.94 153.88 196.37 C152.05 195.04 150.2 193.74 148.34 192.45 C140.89 187.29 133.99 181.71 127.18 175.74 C124.65 173.54 122.06 171.46 119.38 169.44 C109.76 162.05 101.26 153.35 92.69 144.81 C91.84 143.97 90.99 143.13 90.12 142.26 C85.2 137.33 80.53 132.28 76 127 C74.98 125.85 73.96 124.71 72.93 123.57 C65.13 114.81 58.14 105.63 51.42 96.03 C50.21 94.3 48.98 92.59 47.75 90.88 C35.83 74.19 25.19 56.33 16 38 C15.26 36.55 14.53 35.1 13.79 33.66 C10.68 27.51 7.67 21.36 5 15 C4.54 13.94 4.08 12.89 3.61 11.8 C3.18 10.79 2.75 9.79 2.31 8.75 C1.88 7.73 1.44 6.72 0.99 5.67 C0 3 0 3 0 0 Z " fill="#000100" transform="translate(244,777)"/>
<path d="M0 0 C6.12 4.62 10.2 12.45 11.52 19.95 C11.75 26.12 10.49 30.9 7 36 C6.49 36.75 5.99 37.5 5.47 38.27 C1.86 42.26 -2.39 45.19 -6.75 48.31 C-7.64 48.96 -8.53 49.6 -9.44 50.27 C-11.62 51.85 -13.81 53.43 -16 55 C-16.99 54.34 -17.98 53.68 -19 53 C-18.95 52.14 -18.9 51.27 -18.85 50.38 C-19.07 45.45 -21.53 42.74 -24.44 38.88 C-24.98 38.13 -25.52 37.39 -26.08 36.63 C-27.7 34.41 -29.35 32.2 -31 30 C-31.93 28.74 -32.87 27.48 -33.8 26.22 C-35.85 23.47 -37.92 20.73 -40 18 C-41.32 18.33 -42.64 18.66 -44 19 C-44 18.34 -44 17.68 -44 17 C-44.66 17 -45.32 17 -46 17 C-46 16.01 -46 15.02 -46 14 C-43.3 11.34 -40.13 9.23 -37.06 7 C-36.23 6.37 -35.4 5.74 -34.54 5.09 C-24.3 -2.43 -11.82 -6.86 0 0 Z " fill="#000100" transform="translate(358,179)"/>
<path d="M0 0 C2.31 0.69 2.31 0.69 4.43 3.18 C6.76 7.52 6.93 10.61 6.81 15.44 C6.8 16.23 6.79 17.03 6.78 17.85 C6.59 24.15 5.2 29.08 2.31 34.69 C2 35.68 1.69 36.67 1.38 37.69 C-3.77 52.21 -14.98 71.82 -28.69 79.69 C-31.17 79.52 -32.35 78.96 -34.28 77.39 C-36.87 74.26 -36.22 70.4 -36.19 66.5 C-36.18 65.61 -36.18 64.71 -36.17 63.8 C-35.96 55.09 -33.9 47.72 -30.69 39.69 C-30.3 38.71 -29.92 37.72 -29.52 36.71 C-24.24 24.24 -14.38 3.68 0 0 Z " fill="#FAFCFC" transform="translate(552.6875,596.3125)"/>
<path d="M0 0 C5.04 8.83 3.93 18.44 1.35 27.93 C-1.59 37.95 -1.59 37.95 -5 42 C-5.69 43.66 -6.35 45.33 -7 47 C-7.65 48.42 -8.32 49.84 -9 51.25 C-9.33 51.94 -9.66 52.62 -10 53.33 C-11 55 -11 55 -13 56 C-13.52 56.97 -14.03 57.94 -14.56 58.94 C-18.93 66.85 -25.91 73.5 -33 79 C-33.66 79 -34.32 79 -35 79 C-35 78.34 -35 77.68 -35 77 C-35.64 76.78 -36.29 76.57 -36.95 76.34 C-39 75 -39 75 -39.64 72.53 C-39.7 71.53 -39.76 70.53 -39.81 69.5 C-39.88 68.52 -39.95 67.54 -40.02 66.53 C-39.97 57.91 -38.57 50.52 -35.56 42.44 C-35.21 41.48 -34.86 40.53 -34.49 39.55 C-29.18 25.74 -20.97 8.78 -7.88 0.69 C-5.23 -0.28 -2.8 -0.13 0 0 Z " fill="#FAFCFC" transform="translate(932,604)"/>
<path d="M0 0 C9.84 4.05 19.81 15.49 24 25 C25.06 29.31 24.38 32.25 22.38 36.25 C19.69 39.36 17.73 41.24 14 43 C9.77 43.1 5.99 42.33 2 41 C1.34 48.92 0.68 56.84 0 65 C-4.06 65 -5.59 63.48 -8.54 60.83 C-10.49 58.38 -10.66 56.22 -10.38 53.14 C-9.85 50.13 -9.18 47.16 -8.45 44.19 C-7.81 41.06 -7.86 38.18 -8 35 C-11.46 35 -11.82 35.37 -14.19 37.69 C-16.38 39.97 -16.95 40.64 -17.38 43.88 C-17.25 44.58 -17.13 45.28 -17 46 C-16.34 46.33 -15.68 46.66 -15 47 C-16.32 47.99 -17.64 48.98 -19 50 C-19 49.34 -19 48.68 -19 48 C-19.83 47.91 -19.83 47.91 -20.67 47.82 C-24.03 46.64 -25.8 44.49 -28.25 41.94 C-29.14 41.02 -30.03 40.1 -30.95 39.15 C-31.63 38.44 -32.3 37.73 -33 37 C-32.44 35.06 -32.44 35.06 -31 33 C-29.92 32.88 -28.84 32.77 -27.72 32.64 C-23.36 31.89 -22.07 30.78 -19.05 27.63 C-18.18 26.75 -17.31 25.86 -16.42 24.95 C-15.1 23.55 -15.1 23.55 -13.75 22.12 C-12.85 21.2 -11.96 20.28 -11.03 19.32 C-9.37 17.61 -7.71 15.89 -6.07 14.16 C-4 12 -4 12 -2.2 10.44 C-0.58 8.84 -0.58 8.84 -1.31 5.31 C-1.65 3.67 -1.65 3.67 -2 2 C-1.34 2 -0.68 2 0 2 C0 1.34 0 0.68 0 0 Z " fill="#000100" transform="translate(297,997)"/>
<path d="M0 0 C0 1.32 0 2.64 0 4 C-0.99 4 -1.98 4 -3 4 C-0.76 19.09 2.05 34.04 5 49 C-0.43 50.25 -0.43 50.25 -2.88 49.17 C-3.43 48.7 -3.99 48.23 -4.56 47.75 C-5.24 47.19 -5.91 46.64 -6.61 46.07 C-7.4 45.38 -8.19 44.7 -9 44 C-10.51 42.75 -10.51 42.75 -12.05 41.46 C-18.85 35.8 -25.47 29.97 -32 24 C-33.95 27.9 -31.78 32.89 -30.88 37 C-30.67 38.02 -30.47 39.05 -30.27 40.1 C-30.05 41.08 -29.84 42.06 -29.62 43.06 C-29.43 43.96 -29.24 44.86 -29.04 45.79 C-28.16 48.26 -28.16 48.26 -25.4 49.31 C-24.61 49.54 -23.82 49.76 -23 50 C-23.33 51.65 -23.66 53.3 -24 55 C-28.29 55.66 -32.58 56.32 -37 57 C-37.66 55.68 -38.32 54.36 -39 53 C-37.51 52.51 -37.51 52.51 -36 52 C-36.5 43.38 -38.11 35.21 -40.06 26.81 C-40.34 25.57 -40.63 24.34 -40.92 23.06 C-41.6 20.04 -42.3 17.02 -43 14 C-44.32 13.67 -45.64 13.34 -47 13 C-47.33 11.35 -47.66 9.7 -48 8 C-44.24 6.38 -41.11 5.69 -37 6 C-31.66 8.58 -27.31 13.01 -23 17 C-22.07 17.85 -21.13 18.69 -20.17 19.57 C-18.53 21.06 -16.89 22.55 -15.27 24.05 C-12.06 26.81 -8.67 28.9 -5 31 C-5.19 30.27 -5.39 29.55 -5.59 28.8 C-7.46 21.57 -8.89 14.38 -10 7 C-12.48 6.51 -12.48 6.51 -15 6 C-15.5 4.02 -15.5 4.02 -16 2 C-14.09 1.47 -12.17 0.95 -10.25 0.44 C-9.18 0.15 -8.12 -0.14 -7.02 -0.44 C-4.16 -0.97 -2.68 -0.98 0 0 Z " fill="#000100" transform="translate(759,1131)"/>
<path d="M0 0 C5.78 3.45 5.78 3.45 6.88 6.25 C6.92 6.83 6.96 7.4 7 8 C7.66 8 8.32 8 9 8 C8.67 9.32 8.34 10.64 8 12 C7.34 12 6.68 12 6 12 C6 11.34 6 10.68 6 10 C1.09 9.52 -1.97 9.28 -6.12 12.19 C-8.26 14.78 -8.26 14.78 -7.87 17.44 C-6.81 20.57 -5.49 21.75 -2.94 23.81 C-1.84 24.72 -1.84 24.72 -0.71 25.64 C0.13 26.32 0.13 26.32 1 27 C2.32 25.68 3.64 24.36 5 23 C4.34 21.35 3.68 19.7 3 18 C3.66 17.34 4.32 16.68 5 16 C10 16.45 12.95 20.35 16 24 C17.44 26.94 17.44 26.94 18 29 C15 30 15 30 12 29.38 C11.01 29.25 10.02 29.13 9 29 C7.3 30.41 7.3 30.41 6 32 C9.21 35.81 12.41 39.55 16 43 C20.41 41.65 22.58 39.94 25 36 C25.5 31.86 25.34 30.51 23 27 C23.38 24.81 23.38 24.81 24 23 C28.08 23.51 29.66 25.5 32.25 28.56 C32.96 29.39 33.66 30.22 34.39 31.07 C34.92 31.7 35.45 32.34 36 33 C32.83 38.2 29.01 42.29 24.69 46.56 C24.05 47.21 23.41 47.86 22.75 48.52 C18.76 52.5 14.68 55.85 10 59 C9.01 58.34 8.02 57.68 7 57 C7.01 56.22 7.02 55.45 7.03 54.64 C6.99 51.12 5.91 50.22 3.5 47.69 C2.7 46.84 1.89 45.99 1.07 45.11 C0.05 44.07 -0.98 43.04 -2 42 C-2.66 41.33 -3.32 40.67 -4 39.98 C-8.64 35.29 -13.31 30.64 -18 26 C-18.99 26.66 -19.98 27.32 -21 28 C-22.32 26.68 -23.64 25.36 -25 24 C-21.76 20.74 -18.53 17.48 -15.28 14.23 C-14.18 13.12 -13.08 12.01 -11.98 10.9 C-10.4 9.31 -8.81 7.72 -7.23 6.13 C-6.73 5.63 -6.24 5.13 -5.73 4.62 C-2.23 1.11 -2.23 1.11 0 0 Z " fill="#000100" transform="translate(985,995)"/>
<path d="M0 0 C2.89 1.87 5.22 4.19 7.62 6.62 C8.13 7.14 8.65 7.66 9.18 8.19 C10.27 9.28 11.35 10.37 12.44 11.46 C14.08 13.13 15.73 14.78 17.38 16.43 C18.44 17.49 19.5 18.56 20.56 19.62 C21.04 20.11 21.53 20.6 22.03 21.1 C24.42 23.53 26.67 26 28.8 28.65 C31.01 31.58 31.01 31.58 34.4 33.01 C35.31 33.47 36.22 33.92 37.15 34.39 C37.83 36.48 37.83 36.48 38.15 38.39 C35.91 39.45 33.66 40.49 31.4 41.51 C30.77 41.82 30.14 42.12 29.48 42.43 C24.77 44.54 24.77 44.54 21.74 43.78 C19.19 41.54 19.55 38.65 19.15 35.39 C17.7 33.68 17.7 33.68 16.15 32.39 C14.74 32.84 13.32 33.3 11.9 33.76 C11.12 34.02 10.33 34.28 9.51 34.54 C7.29 35.34 5.24 36.29 3.15 37.39 C2.65 40.72 2.65 40.72 3.15 44.39 C6.02 46.89 6.02 46.89 9.15 48.39 C8.15 51.39 8.15 51.39 6.26 52.59 C-0.17 55.45 -0.17 55.45 -3.91 55.14 C-4.55 54.89 -5.19 54.64 -5.85 54.39 C-6.34 52.9 -6.34 52.9 -6.85 51.39 C-6.19 51.39 -5.53 51.39 -4.85 51.39 C-4.72 37.79 -4.91 24.24 -5.58 10.65 C-5.63 9.6 -5.67 8.55 -5.72 7.46 C-5.77 6.53 -5.82 5.6 -5.87 4.64 C-5.85 2.39 -5.85 2.39 -4.85 0.39 C-1.85 -0.61 -1.85 -0.61 0 0 Z " fill="#000100" transform="translate(827.845947265625,1104.6103515625)"/>
<path d="M0 0 C8.7 1.56 16.73 5.21 24.69 8.95 C27.08 10.08 27.08 10.08 30 11 C30 11.66 30 12.32 30 13 C30.66 13 31.32 13 32 13 C31.49 17.32 30.8 21.03 29 25 C27.06 24.62 27.06 24.62 25 24 C24 22 24 22 23.75 19.69 C22.71 15.97 20.99 14.38 18 12 C15.29 11.58 15.29 11.58 13 12 C10.25 16.43 8.52 19.72 8 25 C9.98 25.66 11.96 26.32 14 27 C14.66 25.68 15.32 24.36 16 23 C16.99 23 17.98 23 19 23 C20.18 24.58 20.18 24.58 21 27 C19.88 30.23 19.88 30.23 18.12 33.75 C17.55 34.92 16.98 36.09 16.38 37.3 C15.93 38.19 15.47 39.08 15 40 C13.68 39.67 12.36 39.34 11 39 C11 37.35 11 35.7 11 34 C10.34 34 9.68 34 9 34 C8.67 33.34 8.34 32.68 8 32 C6.68 32 5.36 32 4 32 C3.16 33.96 2.33 35.92 1.5 37.88 C1.04 38.97 0.57 40.06 0.09 41.18 C-1.12 43.81 -1.12 43.81 -1 46 C4.84 49.04 4.84 49.04 11.25 50.06 C14.72 48.72 16.58 46.78 19 44 C19.99 44.66 20.98 45.32 22 46 C21.57 47.4 21.13 48.79 20.69 50.19 C20.44 50.96 20.2 51.74 19.95 52.54 C18.91 55.24 17.51 57.54 16 60 C12.04 58.44 8.08 56.88 4.12 55.31 C3.02 54.88 1.91 54.44 0.77 53.99 C-6 51.31 -12.55 48.39 -19 45 C-18.34 44.01 -17.68 43.02 -17 42 C-15.79 41.85 -15.79 41.85 -14.55 41.69 C-11.75 41.25 -11.75 41.25 -10.45 38.44 C-10.01 37.3 -9.57 36.17 -9.12 35 C-8.63 33.73 -8.13 32.46 -7.63 31.19 C-7.37 30.51 -7.11 29.83 -6.84 29.14 C-5.96 26.9 -5 24.7 -4.03 22.5 C-3.7 21.75 -3.37 21 -3.04 20.23 C-2.4 18.77 -1.75 17.31 -1.1 15.86 C0.74 11.56 1.48 8.65 0 4 C-0.66 3.67 -1.32 3.34 -2 3 C-1.34 2.01 -0.68 1.02 0 0 Z " fill="#000100" transform="translate(448,1103)"/>
<path d="M0 0 C1.27 2.07 1.27 2.07 2 5 C0.7 7.57 -0.56 9.59 -2.25 11.88 C-3.19 13.21 -4.13 14.54 -5.06 15.87 C-5.55 16.55 -6.04 17.23 -6.54 17.93 C-8.86 21.21 -11.05 24.58 -13.25 27.94 C-16.31 32.57 -19.44 37.05 -23.04 41.29 C-24.33 43.59 -24.17 45.41 -24 48 C-25.32 48.66 -26.64 49.32 -28 50 C-28 49.34 -28 48.68 -28 48 C-28.99 48 -29.98 48 -31 48 C-32.82 45.7 -32.82 45.7 -34.69 42.69 C-35.62 41.21 -35.62 41.21 -36.57 39.7 C-38 37 -38 37 -38 34 C-36.93 33.92 -35.85 33.84 -34.75 33.75 C-30.73 32.95 -29.52 32.12 -27 29 C-28.54 24.07 -31.14 19.45 -35 16 C-37.97 15.3 -39.92 15.58 -43 16 C-42.77 16.76 -42.55 17.53 -42.31 18.31 C-42.21 19.2 -42.11 20.09 -42 21 C-43.44 22.81 -43.44 22.81 -45 24 C-48.98 21.13 -51.55 18.26 -54 14 C-54 13.01 -54 12.02 -54 11 C-50.68 10.34 -47.74 10.01 -44.35 10.11 C-39.65 10.13 -35.48 9.07 -30.98 7.81 C-29.74 7.48 -29.74 7.48 -28.47 7.14 C-25.85 6.44 -23.24 5.72 -20.62 5 C-17.99 4.28 -15.35 3.57 -12.72 2.86 C-11.08 2.42 -9.45 1.97 -7.82 1.52 C-2.22 0 -2.22 0 0 0 Z " fill="#000100" transform="translate(253,938)"/>
<path d="M0 0 C2.15 1.59 3.01 2.9 4.16 5.3 C4.51 5.99 4.86 6.68 5.21 7.39 C5.85 9.36 5.85 9.36 4.85 12.36 C-0.02 10.61 -0.02 10.61 -1.15 8.36 C-5.31 8.28 -9.1 8.38 -13.15 9.36 C-13.44 14.93 -13.35 18.56 -10.15 23.36 C-8.1 24.77 -8.1 24.77 -6.15 25.36 C-5.16 24.7 -4.17 24.04 -3.15 23.36 C-3.15 22.37 -3.15 21.38 -3.15 20.36 C-3.15 19.37 -3.15 18.38 -3.15 17.36 C-2.16 16.7 -1.17 16.04 -0.15 15.36 C3.53 20.36 5.7 25.57 7.85 31.36 C6.04 31.99 6.04 31.99 3.85 32.36 C2.86 31.7 1.87 31.04 0.85 30.36 C-1.48 30.28 -3.82 30.28 -6.15 30.36 C-5.79 31.28 -5.43 32.19 -5.05 33.14 C-4.59 34.33 -4.13 35.51 -3.65 36.74 C-2.95 38.51 -2.95 38.51 -2.24 40.32 C-1.15 43.36 -1.15 43.36 -1.15 45.36 C4.49 45.91 7.28 44.41 11.85 41.36 C13.07 38.93 13.17 36.94 13.41 34.24 C13.5 33.33 13.58 32.42 13.67 31.48 C13.76 30.43 13.76 30.43 13.85 29.36 C15.68 29.53 15.68 29.53 17.85 30.36 C19.37 32.76 19.37 32.76 20.66 35.74 C21.1 36.72 21.54 37.69 22 38.7 C22.85 41.36 22.85 41.36 21.85 44.36 C19.71 45.64 17.66 46.74 15.41 47.8 C14.78 48.11 14.15 48.42 13.5 48.73 C8.37 51.19 3.18 53.38 -2.15 55.36 C-2.94 55.66 -3.73 55.96 -4.54 56.27 C-6.41 56.97 -8.28 57.67 -10.15 58.36 C-10.81 57.04 -11.47 55.72 -12.15 54.36 C-11.82 54.03 -11.49 53.7 -11.15 53.36 C-11.27 46.87 -13.45 42.36 -16.46 36.68 C-18.87 31.96 -20.84 27.1 -22.85 22.2 C-23.98 19.3 -23.98 19.3 -26.15 17.36 C-28.72 16.72 -28.72 16.72 -31.15 16.36 C-30.86 14.49 -30.86 14.49 -30.15 12.36 C-27.52 10.86 -25.04 9.62 -22.27 8.43 C-21.5 8.08 -20.74 7.74 -19.94 7.39 C-18.4 6.7 -16.85 6.01 -15.3 5.33 C-11.6 3.67 -7.97 1.81 -4.35 -0.02 C-2.15 -0.64 -2.15 -0.64 0 0 Z " fill="#000100" transform="translate(435.1484375,121.63671875)"/>
<path d="M0 0 C2.35 0.86 2.35 0.86 6.08 0.66 C6.74 0.66 7.4 0.66 8.08 0.66 C10.29 5.08 9.37 10.62 8.08 15.22 C7.75 16.02 7.42 16.83 7.08 17.66 C5.23 17.46 5.23 17.46 3.08 16.66 C1.77 14.48 1.77 14.48 0.64 11.78 C-0.84 8.62 -1.74 6.82 -4.36 4.47 C-7.62 3.44 -9.66 3.71 -12.92 4.66 C-15.16 6.53 -15.16 6.53 -15.5 9.44 C-14.86 13.02 -14.56 13.33 -11.82 15.4 C-10.47 16.32 -9.11 17.22 -7.73 18.09 C-1.37 22.24 3.58 26.16 6.08 33.66 C6.53 39.7 5.47 42.72 1.7 47.34 C-2.51 50.74 -6.65 51.1 -11.92 50.66 C-15.99 49.57 -19.86 48.1 -23.73 46.47 C-26.16 45.42 -26.16 45.42 -29.92 45.66 C-30.92 44.66 -30.92 44.66 -31.17 41.03 C-31.14 36.61 -29.88 33.58 -27.92 29.66 C-26.93 29.99 -25.94 30.32 -24.92 30.66 C-23.96 32.58 -23.96 32.58 -23.11 34.97 C-21.21 39.47 -19.52 41.62 -14.92 43.66 C-12.06 44.07 -9.85 43.95 -6.92 43.66 C-4.72 41.85 -4.72 41.85 -4.55 39.34 C-5.11 35.31 -7.32 32.9 -10.51 30.41 C-12.94 28.73 -15.4 27.1 -17.88 25.49 C-21.97 22.72 -24.12 20.42 -25.92 15.66 C-26.67 9.88 -25.44 5.27 -21.92 0.66 C-14.47 -3.93 -7.73 -3 0 0 Z " fill="#000100" transform="translate(554.921875,1135.34375)"/>
<path d="M0 0 C2.6 3.91 1.97 6.79 1.54 11.25 C1.47 12.07 1.4 12.88 1.33 13.73 C1.1 16.34 0.87 18.95 0.62 21.56 C-1.75 37.96 -1.75 37.96 0 54 C-0.5 54.99 -0.5 54.99 -1 56 C-7.47 54.59 -12.46 51.55 -18 48 C-17.67 46.35 -17.34 44.7 -17 43 C-15.35 43.33 -13.7 43.66 -12 44 C-12 41.36 -12 38.72 -12 36 C-15.94 33.68 -19.69 31.57 -24 30 C-26.97 32.47 -26.97 32.47 -30 35 C-29.65 35.78 -29.3 36.57 -28.94 37.38 C-28.63 38.24 -28.32 39.11 -28 40 C-28.33 40.66 -28.66 41.32 -29 42 C-32.39 41.31 -35.18 40.01 -38.25 38.44 C-39.14 37.98 -40.03 37.53 -40.95 37.06 C-41.97 36.53 -41.97 36.53 -43 36 C-42.66 34.05 -42.66 34.05 -42 32 C-41.15 31.73 -40.31 31.46 -39.44 31.19 C-31.69 28.51 -26.09 21.13 -20.45 15.42 C-17.68 12.68 -14.79 10.13 -11.81 7.61 C-10.01 6.01 -8.39 4.32 -6.75 2.56 C-4 0 -4 0 0 0 Z " fill="#000100" transform="translate(874,130)"/>
<path d="M0 0 C2.33 2.22 4.51 4.43 6.19 7.19 C6.19 7.85 6.19 8.51 6.19 9.19 C7.84 9.19 9.49 9.19 11.19 9.19 C11.85 10.51 12.51 11.83 13.19 13.19 C10.22 16.82 7.25 20.45 4.19 24.19 C2.87 23.53 1.55 22.87 0.19 22.19 C0.31 21.62 0.42 21.05 0.55 20.46 C1.26 16.18 1.6 13.13 -0.56 9.25 C-2.64 6.05 -2.64 6.05 -5.81 4.19 C-8.35 3.85 -8.35 3.85 -10.81 4.19 C-13.11 6.08 -13.11 6.08 -13.22 9.22 C-12.6 15.22 -9.81 19.81 -7.01 25.07 C-4.29 30.44 -3.06 34.15 -3.81 40.19 C-5.02 42.46 -5.02 42.46 -6.62 44.12 C-7.15 44.69 -7.67 45.26 -8.21 45.84 C-11.34 48.47 -14.74 48.47 -18.7 48.4 C-24.83 47.78 -30.21 44.09 -34.81 40.19 C-35.84 38.87 -36.84 37.54 -37.81 36.19 C-38.8 35.86 -39.79 35.53 -40.81 35.19 C-40.81 34.53 -40.81 33.87 -40.81 33.19 C-41.47 33.19 -42.13 33.19 -42.81 33.19 C-42.25 29.28 -40.39 27.29 -37.75 24.44 C-37.02 23.64 -36.28 22.84 -35.53 22.02 C-34.96 21.41 -34.4 20.81 -33.81 20.19 C-32.82 20.85 -31.83 21.51 -30.81 22.19 C-30.7 24.83 -30.7 24.83 -30.94 28 C-31.12 33.02 -31.12 33.02 -28.56 37.31 C-27.65 37.93 -26.75 38.55 -25.81 39.19 C-25.15 39.64 -24.49 40.09 -23.81 40.56 C-21.17 41.39 -19.44 40.97 -16.81 40.19 C-15.54 39.12 -15.54 39.12 -15.5 36.64 C-15.91 32.1 -17.62 28.91 -19.75 24.94 C-20.12 24.22 -20.5 23.5 -20.88 22.76 C-21.85 20.9 -22.83 19.04 -23.81 17.19 C-25.41 13.99 -25.17 10.67 -24.81 7.19 C-23.1 2.51 -21 -0.12 -16.81 -2.81 C-10.73 -4.95 -4.87 -4.08 0 0 Z " fill="#000100" transform="translate(957.8125,181.8125)"/>
<path d="M0 0 C5.82 1.52 10.23 4.02 13.38 9.31 C13.58 9.87 13.79 10.43 14 11 C10.9 11.77 8.17 12.01 5 11.88 C1.13 11.87 -1.08 12.25 -4 15 C-5.29 17.93 -6.2 20.9 -7 24 C-3.87 25.72 -1.8 26.37 1.81 25.75 C5.87 24.36 9.41 21.97 13.04 19.69 C18.79 16.41 23.5 15.48 30 16 C34.26 17.8 35.93 19.94 38 24 C39.14 30.31 38.75 35.65 35.19 41.06 C34.17 42.41 33.11 43.73 32 45 C31.5 45.58 31 46.15 30.49 46.75 C29 48 29 48 26 48 C26.49 50.48 26.49 50.48 27 53 C25.68 53.66 24.36 54.32 23 55 C21.18 53.74 19.37 52.47 17.56 51.19 C16.55 50.48 15.54 49.77 14.5 49.04 C12 47 12 47 11 44 C14.45 43.45 17.57 42.96 21.06 43.25 C25.38 42.88 26.93 41 30 38 C31.4 35.2 31.25 33.1 31 30 C29.55 28.31 29.55 28.31 28 27 C22.4 28.59 17.89 30.56 12.94 33.62 C7.95 36.59 4.84 38.38 -1 38 C-5.31 36.63 -9.51 35.02 -12.27 31.28 C-13.72 28.03 -14.47 24.51 -15 21 C-14.34 20.67 -13.68 20.34 -13 20 C-12.61 18.95 -12.22 17.9 -11.81 16.81 C-10.56 13.67 -9.16 12.08 -6.5 10 C-2.77 7.08 -1.51 4.45 0 0 Z " fill="#000100" transform="translate(1037,926)"/>
<path d="M0 0 C2.31 0.15 2.31 0.15 5 1 C6.6 3.41 6.6 3.41 7.96 6.62 C8.46 7.8 8.97 8.98 9.49 10.19 C12.26 17.08 14.82 24.04 17.33 31.02 C18.01 32.93 18.71 34.82 19.41 36.72 C19.82 37.83 20.22 38.95 20.63 40.09 C21.84 43.08 21.84 43.08 24.16 45.14 C26 47 26 47 26 51 C23.21 51.03 20.42 51.05 17.62 51.06 C16.83 51.07 16.04 51.08 15.22 51.09 C9.23 51.11 9.23 51.11 7 50 C7.33 48.68 7.66 47.36 8 46 C8.66 46 9.32 46 10 46 C9.69 44.69 9.38 43.37 9.06 42.06 C8.8 40.97 8.8 40.97 8.54 39.85 C8.16 38 8.16 38 7 37 C4.65 36.93 2.29 36.92 -0.06 36.94 C-1.35 36.95 -2.64 36.96 -3.97 36.96 C-5.47 36.98 -5.47 36.98 -7 37 C-7.66 39.97 -8.32 42.94 -9 46 C-8.01 46.33 -7.02 46.66 -6 47 C-6 48.32 -6 49.64 -6 51 C-10.29 51 -14.58 51 -19 51 C-19.66 49.68 -20.32 48.36 -21 47 C-20.08 46.2 -19.16 45.4 -18.22 44.58 C-14.43 40.78 -13.07 36.74 -11.5 31.69 C-10.91 29.91 -10.33 28.13 -9.74 26.36 C-9.45 25.46 -9.16 24.57 -8.87 23.65 C-7.54 19.58 -6.12 15.54 -4.69 11.5 C-4.45 10.8 -4.2 10.1 -3.95 9.38 C-2.82 6.14 -1.64 3.02 0 0 Z " fill="#000100" transform="translate(636,1142)"/>
<path d="M0 0 C4.64 0.4 7.6 1.7 11.44 4.27 C12.44 4.93 13.43 5.59 14.46 6.27 C15.48 6.97 16.51 7.66 17.56 8.38 C19.61 9.74 21.65 11.1 23.69 12.46 C24.59 13.07 25.49 13.67 26.42 14.3 C28.15 15.44 29.92 16.52 31.72 17.55 C34.47 19.3 35.53 21.13 37 24 C36.21 25.27 35.42 26.54 34.62 27.81 C34.18 28.52 33.74 29.23 33.29 29.96 C32.22 31.65 31.11 33.33 30 35 C28.68 34.67 27.36 34.34 26 34 C26.03 33.25 26.07 32.5 26.11 31.73 C26.15 30.26 26.15 30.26 26.19 28.75 C26.22 27.78 26.26 26.8 26.29 25.8 C25.96 22.57 25.26 21.29 23 19 C22.01 18.67 21.02 18.34 20 18 C19.73 18.56 19.46 19.13 19.18 19.71 C17.93 22.13 16.54 24.39 15.06 26.69 C14.15 28.11 14.15 28.11 13.22 29.56 C12.48 30.71 11.74 31.85 11 33 C10.54 33.72 10.07 34.43 9.6 35.17 C6.4 40.12 3.2 45.06 0 50 C0.52 50.6 1.03 51.2 1.56 51.81 C2.04 52.53 2.51 53.26 3 54 C2.67 54.99 2.34 55.98 2 57 C-2.52 56.44 -5.53 54.68 -9.31 52.19 C-10.38 51.5 -11.45 50.81 -12.55 50.11 C-13.36 49.41 -14.17 48.72 -15 48 C-15 46.68 -15 45.36 -15 44 C-14.09 43.94 -13.17 43.88 -12.23 43.81 C-8.11 42.78 -7.48 41.59 -5.31 38 C-4.65 36.93 -3.98 35.86 -3.3 34.75 C-2.94 34.16 -2.58 33.57 -2.21 32.95 C-0.87 30.79 0.52 28.66 1.92 26.53 C2.42 25.77 2.92 25.01 3.43 24.22 C4.43 22.72 5.42 21.21 6.41 19.7 C6.86 19 7.31 18.31 7.78 17.59 C8.38 16.66 8.38 16.66 9 15.71 C10.16 13.86 10.16 13.86 11 11 C10.34 11 9.68 11 9 11 C9 10.34 9 9.68 9 9 C3.26 9.24 3.26 9.24 -1.5 12.06 C-2 12.7 -2.49 13.34 -3 14 C-5.48 13.01 -5.48 13.01 -8 12 C-6.86 10.19 -5.71 8.37 -4.56 6.56 C-3.61 5.05 -3.61 5.05 -2.63 3.5 C-1 1 -1 1 0 0 Z " fill="#000100" transform="translate(366,1058)"/>
<path d="M0 0 C0 -0.66 0 -1.32 0 -2 C3.88 -1.12 3.88 -1.12 5 0 C4.91 2.36 4.75 4.71 4.56 7.06 C4.46 8.35 4.36 9.64 4.25 10.97 C4.17 11.97 4.09 12.97 4 14 C0 14 0 14 -2 13 C-2.47 11.89 -2.95 10.77 -3.44 9.62 C-5 5.65 -5 5.65 -8 3 C-12.63 1.89 -15.86 1.5 -20 4 C-25.88 9.6 -28.06 16.58 -28.38 24.62 C-28.12 30.58 -26.76 35.19 -22.56 39.5 C-17.33 41.7 -12.59 41.88 -7 41 C-4.01 39.68 -1.52 38.07 1 36 C3 38 3 38 3 41 C-0.36 45.25 -4.78 47.16 -10 48 C-19.63 48.74 -26.57 46.82 -34.2 40.78 C-38.94 36.1 -40.23 30.64 -40.5 24.12 C-40.22 16.63 -38.39 9.89 -33.56 4.06 C-32.72 3.38 -31.87 2.7 -31 2 C-30.22 1.28 -29.43 0.56 -28.62 -0.19 C-19.6 -6.42 -9.24 -4.62 0 0 Z " fill="#000100" transform="translate(711,84)"/>
<path d="M0 0 C0.99 0 1.98 0 3 0 C3.75 2.44 3.99 4.12 3.75 6.7 C4.09 11.19 5.98 13.66 8.56 17.25 C9.02 17.9 9.47 18.56 9.94 19.23 C10.86 20.55 11.78 21.86 12.7 23.16 C13.85 24.79 14.97 26.44 16.08 28.09 C18.78 32.09 20.98 35.25 25 38 C26.32 36.95 27.63 35.89 28.94 34.81 C29.67 34.22 30.4 33.63 31.15 33.02 C33.35 30.61 33.72 29.22 34 26 C33.92 23.78 33.92 23.78 33.56 21.69 C33.28 19.86 33.28 19.86 33 18 C34.32 18 35.64 18 37 18 C38.92 20.3 38.92 20.3 40.75 23.31 C41.36 24.3 41.98 25.28 42.61 26.3 C44 29 44 29 44 32 C41.62 33.87 39.28 35.54 36.75 37.19 C35.66 37.91 35.66 37.91 34.56 38.65 C33.08 39.63 31.6 40.61 30.12 41.59 C28.19 42.87 26.29 44.19 24.41 45.54 C23.36 46.27 22.32 47 21.25 47.75 C20.33 48.4 19.4 49.06 18.45 49.73 C16 51 16 51 13.67 50.7 C13.12 50.47 12.57 50.24 12 50 C12.23 49.12 12.47 48.24 12.71 47.34 C13.08 43.13 12.15 41.93 9.69 38.56 C8.96 37.53 8.22 36.51 7.47 35.45 C7.07 34.9 6.67 34.35 6.26 33.78 C3.53 29.93 1 25.94 -1.59 21.99 C-4.34 17.59 -4.34 17.59 -8 14 C-9.32 14 -10.64 14 -12 14 C-12.66 13.67 -13.32 13.34 -14 13 C-13.84 11.23 -13.84 11.23 -13 9 C-10.57 7.15 -10.57 7.15 -7.56 5.38 C-3.53 3.01 -3.53 3.01 0 0 Z " fill="#000100" transform="translate(904,1062)"/>
<path d="M0 0 C0.49 0.37 0.98 0.74 1.48 1.12 C1.15 1.63 0.82 2.15 0.48 2.68 C-2.59 10.17 0.92 18.99 2.8 26.43 C3.11 27.73 3.42 29.03 3.73 30.33 C4.04 31.56 4.34 32.78 4.66 34.04 C4.94 35.16 5.22 36.28 5.5 37.43 C6.29 40.42 6.29 40.42 9.48 42.12 C13.55 41.51 17.34 40.08 20.48 37.43 C21.96 34.02 22.18 30.82 22.48 27.12 C23.8 27.12 25.12 27.12 26.48 27.12 C26.99 28.84 27.49 30.57 27.98 32.3 C28.26 33.27 28.54 34.23 28.83 35.22 C29.45 37.97 29.61 40.31 29.48 43.12 C20.35 45.72 11.2 48.27 1.98 50.55 C0.9 50.84 0.9 50.84 -0.21 51.12 C-2.23 51.61 -2.23 51.61 -5.52 52.12 C-6.18 51.46 -6.84 50.8 -7.52 50.12 C-7.52 49.13 -7.52 48.14 -7.52 47.12 C-6.53 46.62 -6.53 46.62 -5.52 46.12 C-4.86 38.05 -7.32 30.78 -9.52 23.12 C-10.85 18.37 -11.76 14.09 -11.52 9.12 C-13.83 8.46 -16.14 7.8 -18.52 7.12 C-18.52 5.8 -18.52 4.48 -18.52 3.12 C-15.94 2.39 -13.35 1.69 -10.77 0.99 C-10.04 0.78 -9.31 0.58 -8.55 0.36 C-3.08 -1.08 -3.08 -1.08 0 0 Z " fill="#000100" transform="translate(514.515625,94.8828125)"/>
<path d="M0 0 C6.7 6.27 11.15 11.91 12.44 21.12 C11.67 26.16 9.02 29.12 5.25 32.38 C4.51 32.91 3.76 33.45 3 34 C-1.76 32.63 -3.96 30.01 -6.75 26.12 C-7.62 24.95 -8.48 23.78 -9.35 22.6 C-9.79 22 -10.22 21.41 -10.67 20.79 C-11.96 19.05 -13.3 17.34 -14.65 15.65 C-15.07 15.12 -15.48 14.59 -15.91 14.04 C-17.06 12.58 -18.22 11.12 -19.38 9.66 C-21.16 6.74 -21.51 5.34 -21 2 C-19.09 -0.55 -17.73 -1.76 -14.69 -2.75 C-8.7 -3.31 -5.04 -3.48 0 0 Z " fill="#FBFDFD" transform="translate(349,186)"/>
<path d="M0 0 C6.34 1.14 12.42 2.75 18 6 C18 6.99 18 7.98 18 9 C17.24 9.15 16.48 9.3 15.69 9.46 C11.56 11.83 11.16 15.2 9.94 19.62 C9.69 20.47 9.44 21.31 9.19 22.18 C8.43 24.78 7.71 27.39 7 30 C6.78 30.8 6.56 31.59 6.33 32.41 C5.72 34.6 5.14 36.8 4.56 39 C4.3 40 4.3 40 4.03 41.01 C3.23 44.23 2.93 45.78 4 49 C4.66 49 5.32 49 6 49 C5.67 50.32 5.34 51.64 5 53 C-1.31 51.9 -7.06 50.42 -13 48 C-13 46.68 -13 45.36 -13 44 C-12.08 43.95 -12.08 43.95 -11.15 43.89 C-8.72 43.16 -8.72 43.16 -7.73 40.36 C-7.36 39.17 -7 37.98 -6.62 36.75 C-6.42 36.1 -6.22 35.46 -6.01 34.79 C-5.32 32.53 -4.66 30.27 -4 28 C-3.6 26.63 -3.6 26.63 -3.19 25.23 C-1.43 19.17 0.3 13.09 2 7 C1.34 7 0.68 7 0 7 C0 6.34 0 5.68 0 5 C-0.66 5 -1.32 5 -2 5 C-1.12 1.12 -1.12 1.12 0 0 Z " fill="#000100" transform="translate(778,96)"/>
<path d="M0 0 C0.33 1.32 0.66 2.64 1 4 C0.01 4.66 -0.98 5.32 -2 6 C-3.1 14.93 -1.95 24.43 -1.25 33.38 C-1.19 34.3 -1.13 35.22 -1.06 36.17 C-0.95 37.46 -0.95 37.46 -0.83 38.77 C-0.77 39.54 -0.7 40.31 -0.64 41.1 C-0.16 43.21 -0.16 43.21 2.05 44.26 C3.02 44.63 3.02 44.63 4 45 C4 46.32 4 47.64 4 49 C0.13 50.27 -3.73 50.11 -7.75 50.06 C-8.8 50.06 -8.8 50.06 -9.86 50.05 C-11.58 50.04 -13.29 50.02 -15 50 C-15 48.68 -15 47.36 -15 46 C-14.01 45.5 -14.01 45.5 -13 45 C-11.85 40.39 -12.02 36.13 -12.34 31.41 C-12.39 30.71 -12.43 30.01 -12.48 29.29 C-12.63 27.07 -12.78 24.85 -12.94 22.62 C-13.04 21.11 -13.14 19.6 -13.24 18.08 C-13.49 14.39 -13.74 10.69 -14 7 C-16.48 6.01 -16.48 6.01 -19 5 C-19 3.68 -19 2.36 -19 1 C-12.66 -0.15 -6.43 -0.1 0 0 Z " fill="#000100" transform="translate(611,80)"/>
<path d="M0 0 C3.38 1.27 4.21 2.86 5.79 6 C6.39 7.9 6.39 7.9 6.02 11.02 C3.95 14.68 1.9 16.6 -1.61 18.9 C-4.85 19.59 -6.61 19.43 -9.54 17.87 C-11.41 16.64 -13.07 15.52 -14.61 13.9 C-14.61 12.91 -14.61 11.92 -14.61 10.9 C-13.95 10.9 -13.29 10.9 -12.61 10.9 C-12.23 10.03 -12.23 10.03 -11.85 9.14 C-10.45 6.61 -8.93 5.02 -6.8 3.09 C-6.13 2.46 -5.46 1.84 -4.78 1.19 C-2.61 -0.1 -2.61 -0.1 0 0 Z " fill="#FBFDFD" transform="translate(306.609375,1013.1015625)"/>
<path d="M0 0 C4.08 1.55 6.08 4.25 8.75 7.62 C9.55 8.63 10.35 9.63 11.17 10.66 C12.08 11.82 12.08 11.82 13 13 C10.05 14.5 7.09 15.8 4 17 C1.19 14.19 1.3 11.16 0.88 7.38 C0.79 6.67 0.7 5.96 0.61 5.23 C0.4 3.49 0.2 1.75 0 0 Z " fill="#FBFDFD" transform="translate(827,1119)"/>
<path d="M0 0 C-3.3 3.96 -6.6 7.92 -10 12 C-10.33 11.34 -10.66 10.68 -11 10 C-11.99 9.67 -12.98 9.34 -14 9 C-17 5.56 -17 5.56 -17 3 C-14.54 2.3 -12.09 1.62 -9.62 0.94 C-8.58 0.64 -8.58 0.64 -7.51 0.33 C-2.23 -1.11 -2.23 -1.11 0 0 Z " fill="#FAFCFC" transform="translate(241,948)"/>
<path d="M0 0 C0.33 0 0.66 0 1 0 C1.12 0.57 1.24 1.14 1.37 1.72 C2.41 6.54 3.59 11.27 5 16 C1.7 16 -1.6 16 -5 16 C-3.94 3.94 -3.94 3.94 0 0 Z " fill="#F9FBFB" transform="translate(637,1157)"/>
<path d="M0 0 C0.09 5.15 -0.15 9.92 -1 15 C-2.3 14.58 -3.59 14.13 -4.88 13.69 C-5.59 13.44 -6.31 13.2 -7.05 12.95 C-9 12 -9 12 -11 9 C-9.74 7.49 -8.47 5.99 -7.19 4.5 C-6.48 3.66 -5.77 2.83 -5.04 1.97 C-3 0 -3 0 0 0 Z " fill="#FAFCFC" transform="translate(865,145)"/>
</svg>
