<svg version="1.1" id="Layer_1" xmlns="http://www.w3.org/2000/svg" xmlns:xlink="http://www.w3.org/1999/xlink" x="0px" y="0px"
	 width="100%" viewBox="0 0 1076 515" enable-background="new 0 0 1076 515" xml:space="preserve">
<path fill="#FFFFFF" opacity="1.000000" stroke="none" 
	d="
M644.000000,516.000000 
	C429.333344,516.000000 215.166672,516.000000 1.000000,516.000000 
	C1.000000,344.333344 1.000000,172.666672 1.000000,1.000000 
	C359.666656,1.000000 718.333313,1.000000 1077.000000,1.000000 
	C1077.000000,172.666672 1077.000000,344.333344 1077.000000,516.000000 
	C932.833313,516.000000 788.666687,516.000000 644.000000,516.000000 
M165.030609,297.707886 
	C162.028534,307.135986 158.601288,316.453308 156.109192,326.014313 
	C150.152328,348.868011 144.163101,371.800201 146.057907,395.768066 
	C147.053680,408.363586 150.839615,419.827759 161.452698,427.974579 
	C170.608505,435.002716 180.952850,437.779694 187.404007,432.042206 
	C187.264618,430.370941 187.079102,428.786987 187.008392,427.197937 
	C186.434235,414.298218 190.318375,402.438904 194.890259,390.570282 
	C201.337021,373.834442 211.717819,359.523041 221.687042,344.935333 
	C224.467667,340.866486 227.326080,341.220917 229.706009,345.254181 
	C233.779068,352.156738 237.443130,359.357849 242.094376,365.849335 
	C250.055893,376.960785 258.053131,388.150421 267.129211,398.332184 
	C277.563202,410.037231 288.760040,421.155090 300.410614,431.657043 
	C312.313568,442.386383 324.807709,452.550415 337.720001,462.040894 
	C348.161774,469.715454 359.470337,476.257874 370.666107,482.840363 
	C376.714050,486.396210 383.145660,489.495422 389.735626,491.887665 
	C399.647491,495.485840 409.711823,498.890686 419.973358,501.226501 
	C428.010590,503.056000 436.556091,504.361328 444.669220,503.624573 
	C451.545135,503.000183 458.777893,500.158875 464.692413,496.448792 
	C475.106354,489.916382 482.216187,480.198792 486.225372,468.345642 
	C489.984985,457.230347 487.700104,446.980713 481.923737,437.346008 
	C480.263123,434.576111 477.375092,431.549927 473.605652,433.296387 
	C469.843933,435.039185 470.864014,438.418854 471.859314,441.853638 
	C473.404785,447.187103 468.176025,455.530304 462.957550,456.989044 
	C449.138580,460.851898 435.415649,459.229950 422.025909,455.360107 
	C412.557831,452.623718 403.234558,449.059204 394.294708,444.901031 
	C381.853699,439.114319 369.518524,432.954895 357.726349,425.962860 
	C347.741516,420.042419 338.198364,413.199707 329.164978,405.893250 
	C315.324219,394.698395 301.758698,383.110565 288.715912,371.000732 
	C280.312134,363.197998 272.261902,354.742523 265.497803,345.520111 
	C258.343994,335.766357 252.826523,324.799774 246.821655,314.233765 
	C246.153229,313.057648 246.359070,310.556335 247.200089,309.491425 
	C251.254486,304.357452 255.478592,299.327393 259.986816,294.587982 
	C271.197632,282.802338 282.374481,270.969910 293.968872,259.566986 
	C312.531372,241.311066 331.016418,222.940552 350.316498,205.483307 
	C362.796021,194.195312 376.377686,184.046082 390.016693,174.145920 
	C400.127930,166.806458 410.909760,160.308121 421.787018,154.128876 
	C433.753082,147.331085 446.172577,141.195282 459.978760,139.069534 
	C466.768402,138.024139 473.714813,137.997238 480.778992,137.496048 
	C480.821472,137.276276 481.030457,136.813705 480.976624,136.384048 
	C479.302917,123.028099 474.269470,111.301300 463.786987,102.477463 
	C456.885620,96.668129 448.479858,93.394974 439.698425,94.225128 
	C424.854034,95.628448 411.301666,101.662399 398.466980,109.090164 
	C382.943787,118.073822 368.908936,129.009216 355.939697,141.424622 
	C345.961853,150.976410 335.061707,159.585052 325.319702,169.358704 
	C305.825714,188.916000 286.621857,208.775787 267.742279,228.926712 
	C257.829437,239.507065 248.661865,250.809799 239.513779,262.075439 
	C231.128510,272.401672 223.239105,283.129974 215.066635,293.630859 
	C214.494629,294.365814 213.387436,294.684204 211.379471,295.882202 
	C212.084808,292.056702 212.160889,289.561829 213.012924,287.368347 
	C217.741180,275.195923 222.606049,263.075623 227.528412,250.979919 
	C230.841110,242.839600 234.390305,234.795624 237.716965,226.660797 
	C241.276978,217.955307 244.651672,209.174133 248.194321,200.461395 
	C253.431808,187.580322 258.708038,174.714676 264.038635,161.871872 
	C269.233795,149.355408 273.181885,136.450562 274.833984,123.013039 
	C275.599670,116.785248 275.963562,110.206276 270.625366,105.062531 
	C264.000854,98.679260 257.581818,92.082687 251.076691,85.575562 
	C242.782135,77.278427 232.289215,76.009781 221.972046,78.831337 
	C211.299423,81.750107 200.781952,86.024147 191.000671,91.219254 
	C178.125107,98.057846 165.602478,105.769066 153.737259,114.238640 
	C143.479721,121.560654 134.280273,130.383362 124.749336,138.698837 
	C117.653931,144.889359 110.499687,151.053619 103.857498,157.714081 
	C88.759651,172.853439 73.685722,188.036423 59.166374,203.723923 
	C52.686340,210.725342 47.265579,218.782410 41.905575,226.725784 
	C35.446110,236.298508 28.797359,245.876160 23.641905,256.159271 
	C18.371035,266.672607 14.264080,277.868561 10.676558,289.094482 
	C7.949164,297.628967 6.204932,306.603790 5.146635,315.516052 
	C3.542310,329.026611 6.441229,342.315613 11.491161,354.636932 
	C20.656826,377.000214 35.718372,393.921509 59.879677,401.037994 
	C69.390556,403.839355 79.121994,403.886932 88.462387,401.536041 
	C94.646622,399.979523 101.565292,398.368347 104.935677,393.609314 
	C97.829979,388.082550 90.163727,383.504089 84.275726,377.251160 
	C72.115601,364.337372 68.374046,347.820435 68.150475,330.648529 
	C68.009567,319.825745 69.429123,308.988831 69.973366,298.149445 
	C70.678299,284.109802 74.900543,270.869354 79.726746,257.919983 
	C86.456711,239.862579 96.427109,223.504913 108.259132,208.279785 
	C119.109291,194.318100 131.574936,181.882324 144.584137,170.004761 
	C153.275833,162.069168 162.290665,154.457047 171.507553,147.136642 
	C179.123596,141.087708 187.059052,135.389496 195.203293,130.072464 
	C202.428894,125.355186 209.936859,120.962242 217.701920,117.217773 
	C222.814804,114.752258 228.537003,113.395447 234.118042,112.117012 
	C237.188049,111.413788 239.878082,112.914505 238.938065,116.739281 
	C237.497787,122.599548 236.058838,128.518570 233.883240,134.127136 
	C229.731201,144.830917 225.178589,155.385193 220.574448,165.906219 
	C214.821243,179.052963 208.744522,192.058243 203.004501,205.210602 
	C198.724670,215.017197 194.815002,224.984650 190.634201,234.835388 
	C186.828751,243.801712 182.679230,252.626450 179.044571,261.659729 
	C174.332504,273.370667 169.980316,285.226349 165.030609,297.707886 
M981.401672,506.043121 
	C993.822144,510.669617 1006.575989,513.653442 1019.910522,512.942383 
	C1028.153564,512.502808 1036.146362,510.297791 1043.205078,506.093719 
	C1051.855347,500.941742 1058.677246,493.619171 1063.598511,484.812927 
	C1070.025513,473.312286 1070.525757,455.955841 1060.950073,445.459290 
	C1058.905640,443.218140 1056.437988,440.341980 1053.603760,442.496643 
	C1052.165039,443.590332 1052.815186,447.436981 1052.540649,450.041168 
	C1052.526611,450.174164 1052.738281,450.316559 1052.776611,450.471497 
	C1054.586914,457.804291 1049.324463,468.315521 1042.638672,468.801910 
	C1033.041016,469.500214 1023.180725,470.011566 1013.747681,468.557800 
	C1004.871460,467.189880 996.414368,463.138092 987.753967,460.325348 
	C972.949341,455.517029 959.437134,448.002167 945.935547,440.457642 
	C927.105225,429.935455 908.949768,418.352142 893.197815,403.539581 
	C879.120117,390.301422 864.695984,377.211395 852.295959,362.480865 
	C842.787415,351.185364 836.094116,337.495697 828.458557,324.686157 
	C827.710815,323.431824 828.525818,320.364288 829.659790,319.018158 
	C835.429321,312.168823 841.422119,305.495605 847.561096,298.971893 
	C860.722595,284.985962 874.066956,271.172272 887.253845,257.210022 
	C906.771240,236.544861 927.496338,217.195908 950.337280,200.251312 
	C965.198364,189.226562 980.284790,178.476715 995.657104,168.181305 
	C1004.128723,162.507507 1013.150940,157.499481 1022.376770,153.149673 
	C1032.614380,148.322876 1043.891113,147.493301 1055.104858,146.934723 
	C1056.729736,146.853790 1059.587280,146.083099 1059.699463,145.314087 
	C1060.299072,141.207596 1061.061523,136.816299 1060.209351,132.859131 
	C1056.225586,114.362282 1038.752930,108.050354 1024.954834,106.172836 
	C1013.450317,104.607399 1002.512085,108.263893 992.073792,113.007561 
	C972.011169,122.124992 955.129089,135.903061 938.537109,150.026215 
	C927.406555,159.500641 916.445496,169.188553 905.700562,179.097549 
	C895.124451,188.850952 884.431946,198.554001 874.659912,209.085800 
	C859.769775,225.133591 845.507690,241.772141 831.213623,258.362000 
	C822.249084,268.766388 813.866394,279.671906 804.911011,290.084503 
	C801.386169,294.182892 799.694397,300.217224 793.174744,302.144135 
	C793.869568,299.890594 794.275269,298.053955 794.988159,296.345520 
	C800.478149,283.189545 805.925476,270.014160 811.588074,256.932281 
	C816.921936,244.609924 822.493652,232.390381 827.977112,220.132950 
	C831.669617,211.878815 835.383911,203.634384 839.100708,195.391144 
	C843.099976,186.521423 847.171448,177.606705 845.939819,167.531174 
	C845.053406,160.279129 839.149414,150.403717 830.839355,147.256241 
	C821.843506,143.849091 812.603882,144.864548 803.493530,145.188553 
	C795.975647,145.455917 795.648621,146.163239 796.086609,153.773193 
	C796.668701,163.885330 795.518555,173.809448 792.710815,183.380737 
	C789.206604,195.326187 784.912659,207.052872 780.633728,218.754837 
	C775.479797,232.850021 770.139343,246.882004 764.594849,260.828125 
	C758.057373,277.272125 751.236206,293.603607 744.499023,309.967865 
	C737.007935,328.163300 728.310364,345.950867 724.399170,365.396332 
	C723.256287,371.078552 722.206604,377.500549 723.713623,382.851379 
	C727.367981,395.826263 736.345398,403.546295 751.753845,402.015442 
	C758.578979,401.337372 762.510620,397.623444 764.098145,391.464661 
	C766.335815,382.783691 769.162903,374.253448 771.784302,365.672913 
	C774.493896,356.803833 777.230408,347.942749 780.008118,339.094788 
	C782.398621,331.480286 784.792786,323.864899 787.377075,316.315521 
	C787.738525,315.259613 789.429382,313.730438 790.092834,313.913483 
	C791.222290,314.225098 792.377136,315.564636 792.907104,316.747467 
	C796.487915,324.739227 799.333618,333.116852 803.516052,340.769043 
	C809.515808,351.746216 816.094421,362.452698 823.086975,372.829163 
	C830.516235,383.853546 838.084167,394.903778 846.745789,404.947296 
	C856.992859,416.829407 868.516113,427.606781 879.411377,438.934998 
	C894.440613,454.561462 911.818359,467.405121 929.540161,479.587921 
	C945.343201,490.451721 962.341187,499.571411 981.401672,506.043121 
M664.038818,435.563202 
	C665.367493,433.014343 666.858582,430.535675 667.995056,427.903809 
	C671.738342,419.234772 675.347900,410.508057 679.018738,401.807648 
	C683.292297,391.678589 687.674622,381.593964 691.822144,371.413605 
	C694.713745,364.316162 697.182617,357.047119 700.041443,349.935547 
	C702.185730,344.601349 704.822144,339.463959 706.938721,334.119812 
	C712.404846,320.318054 717.712585,306.453522 723.068237,292.608093 
	C727.958984,279.964478 733.212219,267.444122 737.600708,254.628052 
	C741.943115,241.946838 736.702759,231.528809 730.873596,226.446411 
	C720.447998,217.356323 708.166809,214.978149 694.748535,216.980804 
	C688.696777,217.884003 683.578125,223.017883 684.746704,227.318085 
	C687.504761,237.467331 685.982300,247.331009 682.475159,256.953949 
	C680.238770,263.090393 677.907776,269.249420 674.940063,275.050934 
	C667.798401,289.012329 660.656555,303.003632 652.727966,316.521423 
	C647.915466,324.726471 641.903992,332.285797 635.928284,339.731628 
	C631.647339,345.065735 626.669800,349.875763 621.686646,354.584778 
	C620.550476,355.658386 618.001160,355.832794 616.319702,355.454620 
	C615.594788,355.291656 614.876587,352.581207 615.102112,351.180511 
	C615.788818,346.915863 616.452759,342.539093 617.993713,338.540466 
	C622.999451,325.551117 628.399475,312.713776 633.633606,299.812195 
	C639.327087,285.778259 645.235718,271.825928 650.626465,257.676422 
	C656.298645,242.788147 645.042542,226.575928 632.174072,222.422714 
	C624.757935,220.029190 617.369812,219.668823 609.876770,220.096832 
	C602.567749,220.514313 600.010193,223.784103 599.997437,231.185791 
	C599.981384,240.513275 601.729248,250.287628 599.527649,259.069916 
	C595.621704,274.650452 589.304565,289.625610 584.013489,304.860077 
	C577.306274,324.171967 566.623840,342.075500 564.805847,363.133331 
	C563.582581,377.301544 568.230591,388.175293 581.208923,393.514648 
	C593.356995,398.512451 602.750610,395.238556 611.094360,388.077881 
	C628.232483,373.369720 641.890991,355.580536 653.058105,335.904938 
	C654.707581,332.998779 656.969604,330.440277 658.948242,327.720917 
	C659.512573,328.013367 660.076965,328.305847 660.641296,328.598297 
	C659.757263,331.982513 659.033630,335.418610 657.959412,338.741364 
	C654.614624,349.087158 651.691650,359.617096 647.581848,369.656708 
	C641.303528,384.993744 634.199768,399.994049 627.390137,415.111969 
	C621.745605,427.643127 615.799011,440.014801 607.459290,451.055847 
	C597.667664,464.019012 585.663574,472.635010 568.449890,472.072723 
	C556.712769,471.689331 546.360535,464.914520 541.927490,454.171997 
	C541.306030,452.666046 539.400696,451.689880 538.089600,450.468506 
	C537.558777,452.305115 536.036377,454.640350 536.666382,455.893250 
	C539.614624,461.756561 542.511475,467.845856 546.613464,472.889099 
	C556.515869,485.063873 570.227356,490.649292 585.483948,490.693268 
	C594.008301,490.717834 602.612122,487.976196 611.055664,485.959869 
	C627.841248,481.951538 640.202698,471.510529 649.965088,457.780029 
	C654.910706,450.824188 659.318848,443.486237 664.038818,435.563202 
M663.576965,180.000000 
	C668.658997,180.340897 673.750488,180.578064 678.821167,181.042664 
	C692.658447,182.310471 706.464844,184.098892 720.328247,184.820953 
	C727.265381,185.182266 734.377686,184.109268 741.273621,182.901932 
	C752.948669,180.857849 762.225098,175.542694 766.104004,163.204697 
	C768.085510,156.901794 764.871521,152.399216 762.015747,147.673691 
	C761.580505,146.953522 759.689819,146.816162 758.508301,146.902374 
	C755.589478,147.115387 752.701599,147.829544 749.783752,147.964737 
	C726.868835,149.026596 703.954102,150.628113 681.030518,150.785599 
	C664.951782,150.896072 648.856628,149.040848 632.774231,147.980942 
	C625.833313,147.523514 618.906128,146.857712 612.625244,146.340317 
	C613.126404,138.714783 613.495972,132.062836 614.020752,125.423141 
	C614.453857,119.944550 611.706116,115.798210 608.429077,111.974113 
	C602.841309,105.453461 595.339600,101.858887 587.184387,100.236069 
	C580.929565,98.991402 574.171997,98.020897 568.252563,101.517014 
	C566.284058,102.679626 564.348633,105.577721 564.179199,107.817162 
	C563.431519,117.702278 563.204163,127.634689 563.062134,137.553879 
	C563.003540,141.649292 561.306519,143.173721 557.344177,143.040451 
	C552.355957,142.872681 547.327942,142.651764 542.370728,143.077805 
	C533.956360,143.800980 525.466614,144.452362 517.227600,146.179047 
	C509.310028,147.838348 501.120361,149.545242 496.484833,157.827911 
	C494.056610,162.166611 493.489471,166.692780 495.570526,170.486923 
	C496.713348,172.570541 501.003143,173.263062 504.017334,173.864853 
	C505.956207,174.251953 508.148102,173.107452 510.239410,173.038513 
	C522.652466,172.629318 535.068115,172.276047 547.485474,172.029938 
	C552.107666,171.938324 553.375061,174.218140 551.243713,178.254425 
	C550.576233,179.518433 549.911926,180.801132 549.423096,182.139908 
	C543.119080,199.405350 536.910767,216.705963 530.548523,233.949814 
	C524.632568,249.984070 518.315002,265.873932 512.618530,281.984436 
	C504.952057,303.666138 497.122986,325.323059 490.560150,347.347137 
	C487.682861,357.003052 490.307007,367.118011 496.236969,375.629059 
	C501.466980,383.135345 509.231873,384.547607 517.967224,384.118622 
	C528.271851,383.612610 530.823853,382.147644 533.259583,372.345673 
	C536.900208,357.695374 539.978943,342.888885 544.123535,328.385132 
	C548.245972,313.958740 553.169861,299.746857 558.151794,285.584991 
	C562.443604,273.384705 567.399597,261.419769 571.900146,249.290741 
	C576.286194,237.470047 580.447632,225.566162 584.743774,213.711899 
	C588.496643,203.356873 591.980286,192.883865 596.294373,182.766373 
	C597.440063,180.079422 596.570251,174.874008 601.878723,175.032455 
	C608.799011,175.239029 615.731506,175.459808 622.624634,176.063324 
	C635.971558,177.231888 649.294556,178.672287 663.576965,180.000000 
M450.958557,349.336548 
	C451.697449,346.384064 452.102020,343.296387 453.232086,340.502136 
	C458.606171,327.214264 464.007935,313.932312 469.732452,300.793121 
	C474.382782,290.119537 479.473938,279.636932 484.431854,269.098907 
	C486.534607,264.629456 489.204315,260.384460 490.895264,255.773010 
	C493.784241,247.894333 495.430542,239.844604 494.136536,231.215210 
	C493.044617,223.933731 490.554565,217.405014 484.585266,213.390961 
	C473.758179,206.110306 461.572327,205.091507 449.122253,208.467834 
	C445.831268,209.360321 443.487427,211.266891 443.829529,215.860794 
	C444.434235,223.981094 444.113281,232.181549 443.920898,240.342346 
	C443.871002,242.460068 442.861816,244.555145 442.293274,246.660629 
	C439.782684,241.117981 438.646149,235.841202 436.959045,230.746750 
	C433.116455,219.143707 423.164032,211.272720 410.602905,212.078369 
	C399.507477,212.790054 389.930145,217.900726 381.224396,224.388672 
	C371.204712,231.855850 363.050903,241.200455 355.322845,251.031860 
	C343.086578,266.598572 335.212799,284.176514 330.051636,303.065399 
	C326.128754,317.422302 324.763733,332.218048 326.219177,346.953857 
	C327.175507,356.636444 329.386444,366.445801 337.741241,373.287537 
	C344.010803,378.421600 351.484955,381.926453 359.120605,380.676422 
	C373.997345,378.240936 385.120056,368.999725 394.327423,357.318970 
	C396.903168,354.051300 400.056732,351.239105 403.841492,347.280548 
	C404.333527,352.032593 404.341522,355.322205 405.061401,358.447845 
	C407.058014,367.116760 409.956390,375.408173 418.934479,379.402344 
	C425.997864,382.544678 433.500366,383.123688 440.744995,380.504395 
	C442.961060,379.703125 445.241943,376.659058 445.835358,374.236115 
	C447.786560,366.268738 448.977234,358.115082 450.958557,349.336548 
M1021.525757,324.982605 
	C1024.025513,318.972382 1026.328003,312.870483 1029.069824,306.972778 
	C1033.511230,297.419342 1038.332764,288.043213 1042.824707,278.512573 
	C1048.106201,267.307068 1054.276001,256.392609 1053.059082,243.209076 
	C1052.111694,232.944977 1047.444946,224.473465 1038.413452,220.471420 
	C1027.030029,215.427170 1014.755493,214.315872 1003.434937,220.335617 
	C1002.938110,231.338913 1002.554626,241.746841 1001.902405,252.137894 
	C1001.808472,253.634521 1000.420898,255.049942 999.632019,256.502960 
	C999.114624,256.305450 998.597229,256.107971 998.079834,255.910461 
	C998.926514,246.449860 995.717834,238.179276 989.855713,231.303467 
	C986.857300,227.786545 982.510742,224.628479 978.154541,223.212372 
	C966.496887,219.422806 955.627991,223.652481 946.019958,229.735687 
	C931.209595,239.112671 919.135193,251.562164 909.812134,266.539307 
	C907.358948,270.480164 904.437012,274.168365 902.340698,278.283508 
	C898.649109,285.530029 894.564819,292.754517 892.227356,300.467804 
	C889.304138,310.113953 888.178223,320.289978 885.916748,330.154816 
	C882.545105,344.861938 883.706482,359.192474 889.021362,373.188568 
	C893.926025,386.104187 909.507446,392.702850 922.317200,389.226868 
	C934.156128,386.014252 942.617249,377.983124 950.766174,369.541656 
	C954.316223,365.864075 957.450684,361.785309 961.406006,357.147552 
	C962.771912,363.941193 963.384644,369.399292 965.005859,374.539246 
	C968.160583,384.541321 975.422180,390.523041 985.708313,391.664764 
	C990.514832,392.198273 995.886780,391.310486 1000.407349,389.543884 
	C1003.807983,388.214935 1004.754089,384.014587 1005.188293,379.927307 
	C1005.917175,373.066559 1007.019470,366.121246 1009.059387,359.551422 
	C1012.614014,348.103485 1017.000977,336.913971 1021.525757,324.982605 
z"/>
<path fill="#000000" opacity="1.000000" stroke="none" 
	d="
M165.251923,297.363831 
	C169.980316,285.226349 174.332504,273.370667 179.044571,261.659729 
	C182.679230,252.626450 186.828751,243.801712 190.634201,234.835388 
	C194.815002,224.984650 198.724670,215.017197 203.004501,205.210602 
	C208.744522,192.058243 214.821243,179.052963 220.574448,165.906219 
	C225.178589,155.385193 229.731201,144.830917 233.883240,134.127136 
	C236.058838,128.518570 237.497787,122.599548 238.938065,116.739281 
	C239.878082,112.914505 237.188049,111.413788 234.118042,112.117012 
	C228.537003,113.395447 222.814804,114.752258 217.701920,117.217773 
	C209.936859,120.962242 202.428894,125.355186 195.203293,130.072464 
	C187.059052,135.389496 179.123596,141.087708 171.507553,147.136642 
	C162.290665,154.457047 153.275833,162.069168 144.584137,170.004761 
	C131.574936,181.882324 119.109291,194.318100 108.259132,208.279785 
	C96.427109,223.504913 86.456711,239.862579 79.726746,257.919983 
	C74.900543,270.869354 70.678299,284.109802 69.973366,298.149445 
	C69.429123,308.988831 68.009567,319.825745 68.150475,330.648529 
	C68.374046,347.820435 72.115601,364.337372 84.275726,377.251160 
	C90.163727,383.504089 97.829979,388.082550 104.935677,393.609314 
	C101.565292,398.368347 94.646622,399.979523 88.462387,401.536041 
	C79.121994,403.886932 69.390556,403.839355 59.879677,401.037994 
	C35.718372,393.921509 20.656826,377.000214 11.491161,354.636932 
	C6.441229,342.315613 3.542310,329.026611 5.146635,315.516052 
	C6.204932,306.603790 7.949164,297.628967 10.676558,289.094482 
	C14.264080,277.868561 18.371035,266.672607 23.641905,256.159271 
	C28.797359,245.876160 35.446110,236.298508 41.905575,226.725784 
	C47.265579,218.782410 52.686340,210.725342 59.166374,203.723923 
	C73.685722,188.036423 88.759651,172.853439 103.857498,157.714081 
	C110.499687,151.053619 117.653931,144.889359 124.749336,138.698837 
	C134.280273,130.383362 143.479721,121.560654 153.737259,114.238640 
	C165.602478,105.769066 178.125107,98.057846 191.000671,91.219254 
	C200.781952,86.024147 211.299423,81.750107 221.972046,78.831337 
	C232.289215,76.009781 242.782135,77.278427 251.076691,85.575562 
	C257.581818,92.082687 264.000854,98.679260 270.625366,105.062531 
	C275.963562,110.206276 275.599670,116.785248 274.833984,123.013039 
	C273.181885,136.450562 269.233795,149.355408 264.038635,161.871872 
	C258.708038,174.714676 253.431808,187.580322 248.194321,200.461395 
	C244.651672,209.174133 241.276978,217.955307 237.716965,226.660797 
	C234.390305,234.795624 230.841110,242.839600 227.528412,250.979919 
	C222.606049,263.075623 217.741180,275.195923 213.012924,287.368347 
	C212.160889,289.561829 212.084808,292.056702 211.379471,295.882202 
	C213.387436,294.684204 214.494629,294.365814 215.066635,293.630859 
	C223.239105,283.129974 231.128510,272.401672 239.513779,262.075439 
	C248.661865,250.809799 257.829437,239.507065 267.742279,228.926712 
	C286.621857,208.775787 305.825714,188.916000 325.319702,169.358704 
	C335.061707,159.585052 345.961853,150.976410 355.939697,141.424622 
	C368.908936,129.009216 382.943787,118.073822 398.466980,109.090164 
	C411.301666,101.662399 424.854034,95.628448 439.698425,94.225128 
	C448.479858,93.394974 456.885620,96.668129 463.786987,102.477463 
	C474.269470,111.301300 479.302917,123.028099 480.976624,136.384048 
	C481.030457,136.813705 480.821472,137.276276 480.778992,137.496048 
	C473.714813,137.997238 466.768402,138.024139 459.978760,139.069534 
	C446.172577,141.195282 433.753082,147.331085 421.787018,154.128876 
	C410.909760,160.308121 400.127930,166.806458 390.016693,174.145920 
	C376.377686,184.046082 362.796021,194.195312 350.316498,205.483307 
	C331.016418,222.940552 312.531372,241.311066 293.968872,259.566986 
	C282.374481,270.969910 271.197632,282.802338 259.986816,294.587982 
	C255.478592,299.327393 251.254486,304.357452 247.200089,309.491425 
	C246.359070,310.556335 246.153229,313.057648 246.821655,314.233765 
	C252.826523,324.799774 258.343994,335.766357 265.497803,345.520111 
	C272.261902,354.742523 280.312134,363.197998 288.715912,371.000732 
	C301.758698,383.110565 315.324219,394.698395 329.164978,405.893250 
	C338.198364,413.199707 347.741516,420.042419 357.726349,425.962860 
	C369.518524,432.954895 381.853699,439.114319 394.294708,444.901031 
	C403.234558,449.059204 412.557831,452.623718 422.025909,455.360107 
	C435.415649,459.229950 449.138580,460.851898 462.957550,456.989044 
	C468.176025,455.530304 473.404785,447.187103 471.859314,441.853638 
	C470.864014,438.418854 469.843933,435.039185 473.605652,433.296387 
	C477.375092,431.549927 480.263123,434.576111 481.923737,437.346008 
	C487.700104,446.980713 489.984985,457.230347 486.225372,468.345642 
	C482.216187,480.198792 475.106354,489.916382 464.692413,496.448792 
	C458.777893,500.158875 451.545135,503.000183 444.669220,503.624573 
	C436.556091,504.361328 428.010590,503.056000 419.973358,501.226501 
	C409.711823,498.890686 399.647491,495.485840 389.735626,491.887665 
	C383.145660,489.495422 376.714050,486.396210 370.666107,482.840363 
	C359.470337,476.257874 348.161774,469.715454 337.720001,462.040894 
	C324.807709,452.550415 312.313568,442.386383 300.410614,431.657043 
	C288.760040,421.155090 277.563202,410.037231 267.129211,398.332184 
	C258.053131,388.150421 250.055893,376.960785 242.094376,365.849335 
	C237.443130,359.357849 233.779068,352.156738 229.706009,345.254181 
	C227.326080,341.220917 224.467667,340.866486 221.687042,344.935333 
	C211.717819,359.523041 201.337021,373.834442 194.890259,390.570282 
	C190.318375,402.438904 186.434235,414.298218 187.008392,427.197937 
	C187.079102,428.786987 187.264618,430.370941 187.404007,432.042206 
	C180.952850,437.779694 170.608505,435.002716 161.452698,427.974579 
	C150.839615,419.827759 147.053680,408.363586 146.057907,395.768066 
	C144.163101,371.800201 150.152328,348.868011 156.109192,326.014313 
	C158.601288,316.453308 162.028534,307.135986 165.251923,297.363831 
z"/>
<path fill="#000000" opacity="1.000000" stroke="none" 
	d="
M980.992676,506.022034 
	C962.341187,499.571411 945.343201,490.451721 929.540161,479.587921 
	C911.818359,467.405121 894.440613,454.561462 879.411377,438.934998 
	C868.516113,427.606781 856.992859,416.829407 846.745789,404.947296 
	C838.084167,394.903778 830.516235,383.853546 823.086975,372.829163 
	C816.094421,362.452698 809.515808,351.746216 803.516052,340.769043 
	C799.333618,333.116852 796.487915,324.739227 792.907104,316.747467 
	C792.377136,315.564636 791.222290,314.225098 790.092834,313.913483 
	C789.429382,313.730438 787.738525,315.259613 787.377075,316.315521 
	C784.792786,323.864899 782.398621,331.480286 780.008118,339.094788 
	C777.230408,347.942749 774.493896,356.803833 771.784302,365.672913 
	C769.162903,374.253448 766.335815,382.783691 764.098145,391.464661 
	C762.510620,397.623444 758.578979,401.337372 751.753845,402.015442 
	C736.345398,403.546295 727.367981,395.826263 723.713623,382.851379 
	C722.206604,377.500549 723.256287,371.078552 724.399170,365.396332 
	C728.310364,345.950867 737.007935,328.163300 744.499023,309.967865 
	C751.236206,293.603607 758.057373,277.272125 764.594849,260.828125 
	C770.139343,246.882004 775.479797,232.850021 780.633728,218.754837 
	C784.912659,207.052872 789.206604,195.326187 792.710815,183.380737 
	C795.518555,173.809448 796.668701,163.885330 796.086609,153.773193 
	C795.648621,146.163239 795.975647,145.455917 803.493530,145.188553 
	C812.603882,144.864548 821.843506,143.849091 830.839355,147.256241 
	C839.149414,150.403717 845.053406,160.279129 845.939819,167.531174 
	C847.171448,177.606705 843.099976,186.521423 839.100708,195.391144 
	C835.383911,203.634384 831.669617,211.878815 827.977112,220.132950 
	C822.493652,232.390381 816.921936,244.609924 811.588074,256.932281 
	C805.925476,270.014160 800.478149,283.189545 794.988159,296.345520 
	C794.275269,298.053955 793.869568,299.890594 793.174744,302.144135 
	C799.694397,300.217224 801.386169,294.182892 804.911011,290.084503 
	C813.866394,279.671906 822.249084,268.766388 831.213623,258.362000 
	C845.507690,241.772141 859.769775,225.133591 874.659912,209.085800 
	C884.431946,198.554001 895.124451,188.850952 905.700562,179.097549 
	C916.445496,169.188553 927.406555,159.500641 938.537109,150.026215 
	C955.129089,135.903061 972.011169,122.124992 992.073792,113.007561 
	C1002.512085,108.263893 1013.450317,104.607399 1024.954834,106.172836 
	C1038.752930,108.050354 1056.225586,114.362282 1060.209351,132.859131 
	C1061.061523,136.816299 1060.299072,141.207596 1059.699463,145.314087 
	C1059.587280,146.083099 1056.729736,146.853790 1055.104858,146.934723 
	C1043.891113,147.493301 1032.614380,148.322876 1022.376770,153.149673 
	C1013.150940,157.499481 1004.128723,162.507507 995.657104,168.181305 
	C980.284790,178.476715 965.198364,189.226562 950.337280,200.251312 
	C927.496338,217.195908 906.771240,236.544861 887.253845,257.210022 
	C874.066956,271.172272 860.722595,284.985962 847.561096,298.971893 
	C841.422119,305.495605 835.429321,312.168823 829.659790,319.018158 
	C828.525818,320.364288 827.710815,323.431824 828.458557,324.686157 
	C836.094116,337.495697 842.787415,351.185364 852.295959,362.480865 
	C864.695984,377.211395 879.120117,390.301422 893.197815,403.539581 
	C908.949768,418.352142 927.105225,429.935455 945.935547,440.457642 
	C959.437134,448.002167 972.949341,455.517029 987.753967,460.325348 
	C996.414368,463.138092 1004.871460,467.189880 1013.747681,468.557800 
	C1023.180725,470.011566 1033.041016,469.500214 1042.638672,468.801910 
	C1049.324463,468.315521 1054.586914,457.804291 1052.776611,450.471497 
	C1052.738281,450.316559 1052.526611,450.174164 1052.540649,450.041168 
	C1052.815186,447.436981 1052.165039,443.590332 1053.603760,442.496643 
	C1056.437988,440.341980 1058.905640,443.218140 1060.950073,445.459290 
	C1070.525757,455.955841 1070.025513,473.312286 1063.598511,484.812927 
	C1058.677246,493.619171 1051.855347,500.941742 1043.205078,506.093719 
	C1036.146362,510.297791 1028.153564,512.502808 1019.910522,512.942383 
	C1006.575989,513.653442 993.822144,510.669617 980.992676,506.022034 
z"/>
<path fill="#000000" opacity="1.000000" stroke="none" 
	d="
M664.004395,435.942139 
	C659.318848,443.486237 654.910706,450.824188 649.965088,457.780029 
	C640.202698,471.510529 627.841248,481.951538 611.055664,485.959869 
	C602.612122,487.976196 594.008301,490.717834 585.483948,490.693268 
	C570.227356,490.649292 556.515869,485.063873 546.613464,472.889099 
	C542.511475,467.845856 539.614624,461.756561 536.666382,455.893250 
	C536.036377,454.640350 537.558777,452.305115 538.089600,450.468506 
	C539.400696,451.689880 541.306030,452.666046 541.927490,454.171997 
	C546.360535,464.914520 556.712769,471.689331 568.449890,472.072723 
	C585.663574,472.635010 597.667664,464.019012 607.459290,451.055847 
	C615.799011,440.014801 621.745605,427.643127 627.390137,415.111969 
	C634.199768,399.994049 641.303528,384.993744 647.581848,369.656708 
	C651.691650,359.617096 654.614624,349.087158 657.959412,338.741364 
	C659.033630,335.418610 659.757263,331.982513 660.641296,328.598297 
	C660.076965,328.305847 659.512573,328.013367 658.948242,327.720917 
	C656.969604,330.440277 654.707581,332.998779 653.058105,335.904938 
	C641.890991,355.580536 628.232483,373.369720 611.094360,388.077881 
	C602.750610,395.238556 593.356995,398.512451 581.208923,393.514648 
	C568.230591,388.175293 563.582581,377.301544 564.805847,363.133331 
	C566.623840,342.075500 577.306274,324.171967 584.013489,304.860077 
	C589.304565,289.625610 595.621704,274.650452 599.527649,259.069916 
	C601.729248,250.287628 599.981384,240.513275 599.997437,231.185791 
	C600.010193,223.784103 602.567749,220.514313 609.876770,220.096832 
	C617.369812,219.668823 624.757935,220.029190 632.174072,222.422714 
	C645.042542,226.575928 656.298645,242.788147 650.626465,257.676422 
	C645.235718,271.825928 639.327087,285.778259 633.633606,299.812195 
	C628.399475,312.713776 622.999451,325.551117 617.993713,338.540466 
	C616.452759,342.539093 615.788818,346.915863 615.102112,351.180511 
	C614.876587,352.581207 615.594788,355.291656 616.319702,355.454620 
	C618.001160,355.832794 620.550476,355.658386 621.686646,354.584778 
	C626.669800,349.875763 631.647339,345.065735 635.928284,339.731628 
	C641.903992,332.285797 647.915466,324.726471 652.727966,316.521423 
	C660.656555,303.003632 667.798401,289.012329 674.940063,275.050934 
	C677.907776,269.249420 680.238770,263.090393 682.475159,256.953949 
	C685.982300,247.331009 687.504761,237.467331 684.746704,227.318085 
	C683.578125,223.017883 688.696777,217.884003 694.748535,216.980804 
	C708.166809,214.978149 720.447998,217.356323 730.873596,226.446411 
	C736.702759,231.528809 741.943115,241.946838 737.600708,254.628052 
	C733.212219,267.444122 727.958984,279.964478 723.068237,292.608093 
	C717.712585,306.453522 712.404846,320.318054 706.938721,334.119812 
	C704.822144,339.463959 702.185730,344.601349 700.041443,349.935547 
	C697.182617,357.047119 694.713745,364.316162 691.822144,371.413605 
	C687.674622,381.593964 683.292297,391.678589 679.018738,401.807648 
	C675.347900,410.508057 671.738342,419.234772 667.995056,427.903809 
	C666.858582,430.535675 665.367493,433.014343 664.004395,435.942139 
z"/>
<path fill="#000000" opacity="1.000000" stroke="none" 
	d="
M663.102234,180.000000 
	C649.294556,178.672287 635.971558,177.231888 622.624634,176.063324 
	C615.731506,175.459808 608.799011,175.239029 601.878723,175.032455 
	C596.570251,174.874008 597.440063,180.079422 596.294373,182.766373 
	C591.980286,192.883865 588.496643,203.356873 584.743774,213.711899 
	C580.447632,225.566162 576.286194,237.470047 571.900146,249.290741 
	C567.399597,261.419769 562.443604,273.384705 558.151794,285.584991 
	C553.169861,299.746857 548.245972,313.958740 544.123535,328.385132 
	C539.978943,342.888885 536.900208,357.695374 533.259583,372.345673 
	C530.823853,382.147644 528.271851,383.612610 517.967224,384.118622 
	C509.231873,384.547607 501.466980,383.135345 496.236969,375.629059 
	C490.307007,367.118011 487.682861,357.003052 490.560150,347.347137 
	C497.122986,325.323059 504.952057,303.666138 512.618530,281.984436 
	C518.315002,265.873932 524.632568,249.984070 530.548523,233.949814 
	C536.910767,216.705963 543.119080,199.405350 549.423096,182.139908 
	C549.911926,180.801132 550.576233,179.518433 551.243713,178.254425 
	C553.375061,174.218140 552.107666,171.938324 547.485474,172.029938 
	C535.068115,172.276047 522.652466,172.629318 510.239410,173.038513 
	C508.148102,173.107452 505.956207,174.251953 504.017334,173.864853 
	C501.003143,173.263062 496.713348,172.570541 495.570526,170.486923 
	C493.489471,166.692780 494.056610,162.166611 496.484833,157.827911 
	C501.120361,149.545242 509.310028,147.838348 517.227600,146.179047 
	C525.466614,144.452362 533.956360,143.800980 542.370728,143.077805 
	C547.327942,142.651764 552.355957,142.872681 557.344177,143.040451 
	C561.306519,143.173721 563.003540,141.649292 563.062134,137.553879 
	C563.204163,127.634689 563.431519,117.702278 564.179199,107.817162 
	C564.348633,105.577721 566.284058,102.679626 568.252563,101.517014 
	C574.171997,98.020897 580.929565,98.991402 587.184387,100.236069 
	C595.339600,101.858887 602.841309,105.453461 608.429077,111.974113 
	C611.706116,115.798210 614.453857,119.944550 614.020752,125.423141 
	C613.495972,132.062836 613.126404,138.714783 612.625244,146.340317 
	C618.906128,146.857712 625.833313,147.523514 632.774231,147.980942 
	C648.856628,149.040848 664.951782,150.896072 681.030518,150.785599 
	C703.954102,150.628113 726.868835,149.026596 749.783752,147.964737 
	C752.701599,147.829544 755.589478,147.115387 758.508301,146.902374 
	C759.689819,146.816162 761.580505,146.953522 762.015747,147.673691 
	C764.871521,152.399216 768.085510,156.901794 766.104004,163.204697 
	C762.225098,175.542694 752.948669,180.857849 741.273621,182.901932 
	C734.377686,184.109268 727.265381,185.182266 720.328247,184.820953 
	C706.464844,184.098892 692.658447,182.310471 678.821167,181.042664 
	C673.750488,180.578064 668.658997,180.340897 663.102234,180.000000 
z"/>
<path fill="#010101" opacity="1.000000" stroke="none" 
	d="
M450.709320,349.684753 
	C448.977234,358.115082 447.786560,366.268738 445.835358,374.236115 
	C445.241943,376.659058 442.961060,379.703125 440.744995,380.504395 
	C433.500366,383.123688 425.997864,382.544678 418.934479,379.402344 
	C409.956390,375.408173 407.058014,367.116760 405.061401,358.447845 
	C404.341522,355.322205 404.333527,352.032593 403.841492,347.280548 
	C400.056732,351.239105 396.903168,354.051300 394.327423,357.318970 
	C385.120056,368.999725 373.997345,378.240936 359.120605,380.676422 
	C351.484955,381.926453 344.010803,378.421600 337.741241,373.287537 
	C329.386444,366.445801 327.175507,356.636444 326.219177,346.953857 
	C324.763733,332.218048 326.128754,317.422302 330.051636,303.065399 
	C335.212799,284.176514 343.086578,266.598572 355.322845,251.031860 
	C363.050903,241.200455 371.204712,231.855850 381.224396,224.388672 
	C389.930145,217.900726 399.507477,212.790054 410.602905,212.078369 
	C423.164032,211.272720 433.116455,219.143707 436.959045,230.746750 
	C438.646149,235.841202 439.782684,241.117981 442.293274,246.660629 
	C442.861816,244.555145 443.871002,242.460068 443.920898,240.342346 
	C444.113281,232.181549 444.434235,223.981094 443.829529,215.860794 
	C443.487427,211.266891 445.831268,209.360321 449.122253,208.467834 
	C461.572327,205.091507 473.758179,206.110306 484.585266,213.390961 
	C490.554565,217.405014 493.044617,223.933731 494.136536,231.215210 
	C495.430542,239.844604 493.784241,247.894333 490.895264,255.773010 
	C489.204315,260.384460 486.534607,264.629456 484.431854,269.098907 
	C479.473938,279.636932 474.382782,290.119537 469.732452,300.793121 
	C464.007935,313.932312 458.606171,327.214264 453.232086,340.502136 
	C452.102020,343.296387 451.697449,346.384064 450.709320,349.684753 
M413.491882,242.934235 
	C411.237854,244.552032 408.724792,245.906204 406.769379,247.827866 
	C383.564453,270.632233 370.979980,298.916138 365.390320,330.445984 
	C363.907135,338.812164 363.997864,347.691956 368.046173,355.845215 
	C370.307007,360.398529 372.183716,361.149384 376.383453,358.147064 
	C379.988861,355.569672 383.617157,352.849121 386.603668,349.609528 
	C406.301636,328.242279 420.291992,303.551819 427.607269,275.428009 
	C430.052948,266.025787 430.737854,256.065338 426.443939,246.601669 
	C423.321655,239.720139 421.026154,238.928787 413.491882,242.934235 
z"/>
<path fill="#010101" opacity="1.000000" stroke="none" 
	d="
M1021.282410,325.299377 
	C1017.000977,336.913971 1012.614014,348.103485 1009.059387,359.551422 
	C1007.019470,366.121246 1005.917175,373.066559 1005.188293,379.927307 
	C1004.754089,384.014587 1003.807983,388.214935 1000.407349,389.543884 
	C995.886780,391.310486 990.514832,392.198273 985.708313,391.664764 
	C975.422180,390.523041 968.160583,384.541321 965.005859,374.539246 
	C963.384644,369.399292 962.771912,363.941193 961.406006,357.147552 
	C957.450684,361.785309 954.316223,365.864075 950.766174,369.541656 
	C942.617249,377.983124 934.156128,386.014252 922.317200,389.226868 
	C909.507446,392.702850 893.926025,386.104187 889.021362,373.188568 
	C883.706482,359.192474 882.545105,344.861938 885.916748,330.154816 
	C888.178223,320.289978 889.304138,310.113953 892.227356,300.467804 
	C894.564819,292.754517 898.649109,285.530029 902.340698,278.283508 
	C904.437012,274.168365 907.358948,270.480164 909.812134,266.539307 
	C919.135193,251.562164 931.209595,239.112671 946.019958,229.735687 
	C955.627991,223.652481 966.496887,219.422806 978.154541,223.212372 
	C982.510742,224.628479 986.857300,227.786545 989.855713,231.303467 
	C995.717834,238.179276 998.926514,246.449860 998.079834,255.910461 
	C998.597229,256.107971 999.114624,256.305450 999.632019,256.502960 
	C1000.420898,255.049942 1001.808472,253.634521 1001.902405,252.137894 
	C1002.554626,241.746841 1002.938110,231.338913 1003.434937,220.335617 
	C1014.755493,214.315872 1027.030029,215.427170 1038.413452,220.471420 
	C1047.444946,224.473465 1052.111694,232.944977 1053.059082,243.209076 
	C1054.276001,256.392609 1048.106201,267.307068 1042.824707,278.512573 
	C1038.332764,288.043213 1033.511230,297.419342 1029.069824,306.972778 
	C1026.328003,312.870483 1024.025513,318.972382 1021.282410,325.299377 
M926.939026,366.487946 
	C928.677063,370.119751 931.010620,371.105377 934.365356,368.294373 
	C937.009583,366.078674 940.035767,364.253174 942.407227,361.787750 
	C964.472107,338.848541 979.640076,312.033722 986.776611,280.938171 
	C988.690918,272.596924 988.179932,264.115692 984.800720,256.012695 
	C982.499451,250.494415 979.817993,249.394226 974.413940,251.507614 
	C965.567444,254.967285 959.834534,262.042206 954.253967,269.093170 
	C943.954651,282.106445 936.306335,296.761871 930.973145,312.368622 
	C927.427063,322.745697 924.787109,333.656982 923.594482,344.532349 
	C922.838196,351.428406 925.484680,358.697632 926.939026,366.487946 
z"/>
<path fill="#FDFDFD" opacity="1.000000" stroke="none" 
	d="
M413.829834,242.773544 
	C421.026154,238.928787 423.321655,239.720139 426.443939,246.601669 
	C430.737854,256.065338 430.052948,266.025787 427.607269,275.428009 
	C420.291992,303.551819 406.301636,328.242279 386.603668,349.609528 
	C383.617157,352.849121 379.988861,355.569672 376.383453,358.147064 
	C372.183716,361.149384 370.307007,360.398529 368.046173,355.845215 
	C363.997864,347.691956 363.907135,338.812164 365.390320,330.445984 
	C370.979980,298.916138 383.564453,270.632233 406.769379,247.827866 
	C408.724792,245.906204 411.237854,244.552032 413.829834,242.773544 
z"/>
<path fill="#FDFDFD" opacity="1.000000" stroke="none" 
	d="
M926.772095,366.143738 
	C925.484680,358.697632 922.838196,351.428406 923.594482,344.532349 
	C924.787109,333.656982 927.427063,322.745697 930.973145,312.368622 
	C936.306335,296.761871 943.954651,282.106445 954.253967,269.093170 
	C959.834534,262.042206 965.567444,254.967285 974.413940,251.507614 
	C979.817993,249.394226 982.499451,250.494415 984.800720,256.012695 
	C988.179932,264.115692 988.690918,272.596924 986.776611,280.938171 
	C979.640076,312.033722 964.472107,338.848541 942.407227,361.787750 
	C940.035767,364.253174 937.009583,366.078674 934.365356,368.294373 
	C931.010620,371.105377 928.677063,370.119751 926.772095,366.143738 
z"/>
</svg>